<?xml version="1.0" encoding="UTF-8" standalone="no"?><svg xmlns="http://www.w3.org/2000/svg" xmlns:xlink="http://www.w3.org/1999/xlink" contentStyleType="text/css" height="450px" preserveAspectRatio="none" style="width:1078px;height:450px;background:#FFFFFF;" version="1.1" viewBox="0 0 1078 450" width="1078px" zoomAndPan="magnify"><defs/><g><!--MD5=[387b714acd68f5f46d43abb63d155053]
class Humans--><g id="elem_Humans"><rect codeLine="2" fill="#F1F1F1" height="100.8281" id="Humans" rx="2.5" ry="2.5" style="stroke:#181818;stroke-width:0.5;" width="436" x="29.18" y="7"/><ellipse cx="217.43" cy="23" fill="#ADD1B2" rx="11" ry="11" style="stroke:#181818;stroke-width:1.0;"/><path d="M216.2894,23.7969 L216.2894,26.2969 L220.6175,26.2969 L220.6175,25.375 Q220.6175,24.7656 220.8519,24.5 Q221.1019,24.2344 221.4769,24.2344 Q221.8519,24.2344 222.0863,24.5 Q222.3206,24.7656 222.3206,25.375 L222.3206,28 L214.3206,28 Q213.6956,28 213.43,27.7656 Q213.18,27.5313 213.18,27.1406 Q213.18,26.7656 213.4456,26.5313 Q213.7113,26.2969 214.3206,26.2969 L214.5863,26.2969 L214.5863,19.6406 L214.3206,19.6406 Q213.6956,19.6406 213.43,19.4063 Q213.18,19.1719 213.18,18.7813 Q213.18,18.4063 213.43,18.1719 Q213.6956,17.9375 214.3206,17.9375 L221.9456,17.9375 L221.9456,20.5313 Q221.9456,21.1406 221.7113,21.4063 Q221.4925,21.6563 221.1019,21.6563 Q220.7269,21.6563 220.4925,21.4063 Q220.2581,21.1406 220.2581,20.5313 L220.2581,19.6406 L216.2894,19.6406 L216.2894,22.0938 L217.7738,22.0938 Q217.7738,21.4375 217.8988,21.25 Q218.1644,20.8438 218.6331,20.8438 Q219.0081,20.8438 219.2425,21.1094 Q219.4769,21.3594 219.4769,21.9688 L219.4769,23.9375 Q219.4769,24.4844 219.3519,24.6719 Q219.0863,25.0625 218.6331,25.0625 Q218.1644,25.0625 217.8988,24.6563 Q217.7738,24.4688 217.7738,23.7969 L216.2894,23.7969 Z " fill="#000000"/><text fill="#000000" font-family="sans-serif" font-size="14" lengthAdjust="spacing" textLength="51" x="237.93" y="28.7285">Humans</text><line style="stroke:#181818;stroke-width:0.5;" x1="30.18" x2="464.18" y1="39" y2="39"/><text fill="#000000" font-family="sans-serif" font-size="14" lengthAdjust="spacing" textLength="159" x="35.18" y="57.5332">id SERIAL PRIMARY KEY</text><line style="stroke:#181818;stroke-width:1.0;" x1="30.18" x2="464.18" y1="64.6094" y2="64.6094"/><text fill="#000000" font-family="sans-serif" font-size="14" lengthAdjust="spacing" textLength="202" x="35.18" y="83.1426">name VARCHAR(30) NOT NULL</text><text fill="#000000" font-family="sans-serif" font-size="14" lengthAdjust="spacing" textLength="424" x="35.18" y="100.752">animal_id INTEGER REFERENCES Animals (id) NOT NULL UNIQUE</text></g><!--MD5=[e86ba3fbd4ca2a35951352852797cca8]
class AnimalsToPlans--><g id="elem_AnimalsToPlans"><rect codeLine="9" fill="#F1F1F1" height="100.8281" id="AnimalsToPlans" rx="2.5" ry="2.5" style="stroke:#181818;stroke-width:0.5;" width="305" x="404.68" y="343"/><ellipse cx="502.43" cy="359" fill="#ADD1B2" rx="11" ry="11" style="stroke:#181818;stroke-width:1.0;"/><path d="M501.2894,359.7969 L501.2894,362.2969 L505.6175,362.2969 L505.6175,361.375 Q505.6175,360.7656 505.8519,360.5 Q506.1019,360.2344 506.4769,360.2344 Q506.8519,360.2344 507.0863,360.5 Q507.3206,360.7656 507.3206,361.375 L507.3206,364 L499.3206,364 Q498.6956,364 498.43,363.7656 Q498.18,363.5313 498.18,363.1406 Q498.18,362.7656 498.4456,362.5313 Q498.7113,362.2969 499.3206,362.2969 L499.5863,362.2969 L499.5863,355.6406 L499.3206,355.6406 Q498.6956,355.6406 498.43,355.4063 Q498.18,355.1719 498.18,354.7813 Q498.18,354.4063 498.43,354.1719 Q498.6956,353.9375 499.3206,353.9375 L506.9456,353.9375 L506.9456,356.5313 Q506.9456,357.1406 506.7113,357.4063 Q506.4925,357.6563 506.1019,357.6563 Q505.7269,357.6563 505.4925,357.4063 Q505.2581,357.1406 505.2581,356.5313 L505.2581,355.6406 L501.2894,355.6406 L501.2894,358.0938 L502.7738,358.0938 Q502.7738,357.4375 502.8988,357.25 Q503.1644,356.8438 503.6331,356.8438 Q504.0081,356.8438 504.2425,357.1094 Q504.4769,357.3594 504.4769,357.9688 L504.4769,359.9375 Q504.4769,360.4844 504.3519,360.6719 Q504.0863,361.0625 503.6331,361.0625 Q503.1644,361.0625 502.8988,360.6563 Q502.7738,360.4688 502.7738,359.7969 L501.2894,359.7969 Z " fill="#000000"/><text fill="#000000" font-family="sans-serif" font-size="14" lengthAdjust="spacing" textLength="101" x="522.93" y="364.7285">AnimalsToPlans</text><line style="stroke:#181818;stroke-width:0.5;" x1="405.68" x2="708.68" y1="375" y2="375"/><text fill="#000000" font-family="sans-serif" font-size="14" lengthAdjust="spacing" textLength="271" x="410.68" y="393.5332">plan_id INTEGER REFERENCES Plans (id)</text><line style="stroke:#181818;stroke-width:1.0;" x1="405.68" x2="708.68" y1="400.6094" y2="400.6094"/><text fill="#000000" font-family="sans-serif" font-size="14" lengthAdjust="spacing" textLength="293" x="410.68" y="419.1426">action_id INTEGER REFERENCES Actions (id)</text><text fill="#000000" font-family="sans-serif" font-size="14" lengthAdjust="spacing" textLength="217" x="410.68" y="436.752">PRIMARY KEY (plan_id, action_id)</text></g><!--MD5=[0d10cc31e7d99b95ca38c91b83c4b36e]
class Animals--><g id="elem_Animals"><rect codeLine="17" fill="#F1F1F1" height="100.8281" id="Animals" rx="2.5" ry="2.5" style="stroke:#181818;stroke-width:0.5;" width="371" x="60.68" y="175.5"/><ellipse cx="217.43" cy="191.5" fill="#ADD1B2" rx="11" ry="11" style="stroke:#181818;stroke-width:1.0;"/><path d="M216.2894,192.2969 L216.2894,194.7969 L220.6175,194.7969 L220.6175,193.875 Q220.6175,193.2656 220.8519,193 Q221.1019,192.7344 221.4769,192.7344 Q221.8519,192.7344 222.0863,193 Q222.3206,193.2656 222.3206,193.875 L222.3206,196.5 L214.3206,196.5 Q213.6956,196.5 213.43,196.2656 Q213.18,196.0313 213.18,195.6406 Q213.18,195.2656 213.4456,195.0313 Q213.7113,194.7969 214.3206,194.7969 L214.5863,194.7969 L214.5863,188.1406 L214.3206,188.1406 Q213.6956,188.1406 213.43,187.9063 Q213.18,187.6719 213.18,187.2813 Q213.18,186.9063 213.43,186.6719 Q213.6956,186.4375 214.3206,186.4375 L221.9456,186.4375 L221.9456,189.0313 Q221.9456,189.6406 221.7113,189.9063 Q221.4925,190.1563 221.1019,190.1563 Q220.7269,190.1563 220.4925,189.9063 Q220.2581,189.6406 220.2581,189.0313 L220.2581,188.1406 L216.2894,188.1406 L216.2894,190.5938 L217.7738,190.5938 Q217.7738,189.9375 217.8988,189.75 Q218.1644,189.3438 218.6331,189.3438 Q219.0081,189.3438 219.2425,189.6094 Q219.4769,189.8594 219.4769,190.4688 L219.4769,192.4375 Q219.4769,192.9844 219.3519,193.1719 Q219.0863,193.5625 218.6331,193.5625 Q218.1644,193.5625 217.8988,193.1563 Q217.7738,192.9688 217.7738,192.2969 L216.2894,192.2969 Z " fill="#000000"/><text fill="#000000" font-family="sans-serif" font-size="14" lengthAdjust="spacing" textLength="49" x="237.93" y="197.2285">Animals</text><line style="stroke:#181818;stroke-width:0.5;" x1="61.68" x2="430.68" y1="207.5" y2="207.5"/><text fill="#000000" font-family="sans-serif" font-size="14" lengthAdjust="spacing" textLength="159" x="66.68" y="226.0332">id SERIAL PRIMARY KEY</text><line style="stroke:#181818;stroke-width:1.0;" x1="61.68" x2="430.68" y1="233.1094" y2="233.1094"/><text fill="#000000" font-family="sans-serif" font-size="14" lengthAdjust="spacing" textLength="359" x="66.68" y="251.6426">species INTEGER REFERENCES Species (id) NOT NULL</text><text fill="#000000" font-family="sans-serif" font-size="14" lengthAdjust="spacing" textLength="291" x="66.68" y="269.252">smartness INTEGER CHECK (smartness &gt;= 0)</text></g><!--MD5=[9381ad81d05f55ea841a37b4dd7f50a4]
class PlansToActions--><g id="elem_PlansToActions"><rect codeLine="24" fill="#F1F1F1" height="100.8281" id="PlansToActions" rx="2.5" ry="2.5" style="stroke:#181818;stroke-width:0.5;" width="311" x="760.68" y="343"/><ellipse cx="862.93" cy="359" fill="#ADD1B2" rx="11" ry="11" style="stroke:#181818;stroke-width:1.0;"/><path d="M861.7894,359.7969 L861.7894,362.2969 L866.1175,362.2969 L866.1175,361.375 Q866.1175,360.7656 866.3519,360.5 Q866.6019,360.2344 866.9769,360.2344 Q867.3519,360.2344 867.5863,360.5 Q867.8206,360.7656 867.8206,361.375 L867.8206,364 L859.8206,364 Q859.1956,364 858.93,363.7656 Q858.68,363.5313 858.68,363.1406 Q858.68,362.7656 858.9456,362.5313 Q859.2113,362.2969 859.8206,362.2969 L860.0863,362.2969 L860.0863,355.6406 L859.8206,355.6406 Q859.1956,355.6406 858.93,355.4063 Q858.68,355.1719 858.68,354.7813 Q858.68,354.4063 858.93,354.1719 Q859.1956,353.9375 859.8206,353.9375 L867.4456,353.9375 L867.4456,356.5313 Q867.4456,357.1406 867.2113,357.4063 Q866.9925,357.6563 866.6019,357.6563 Q866.2269,357.6563 865.9925,357.4063 Q865.7581,357.1406 865.7581,356.5313 L865.7581,355.6406 L861.7894,355.6406 L861.7894,358.0938 L863.2738,358.0938 Q863.2738,357.4375 863.3988,357.25 Q863.6644,356.8438 864.1331,356.8438 Q864.5081,356.8438 864.7425,357.1094 Q864.9769,357.3594 864.9769,357.9688 L864.9769,359.9375 Q864.9769,360.4844 864.8519,360.6719 Q864.5863,361.0625 864.1331,361.0625 Q863.6644,361.0625 863.3988,360.6563 Q863.2738,360.4688 863.2738,359.7969 L861.7894,359.7969 Z " fill="#000000"/><text fill="#000000" font-family="sans-serif" font-size="14" lengthAdjust="spacing" textLength="98" x="883.43" y="364.7285">PlansToActions</text><line style="stroke:#181818;stroke-width:0.5;" x1="761.68" x2="1070.68" y1="375" y2="375"/><text fill="#000000" font-family="sans-serif" font-size="14" lengthAdjust="spacing" textLength="271" x="766.68" y="393.5332">plan_id INTEGER REFERENCES Plans (id)</text><line style="stroke:#181818;stroke-width:1.0;" x1="761.68" x2="1070.68" y1="400.6094" y2="400.6094"/><text fill="#000000" font-family="sans-serif" font-size="14" lengthAdjust="spacing" textLength="299" x="766.68" y="419.1426">animal_id INTEGER REFERENCES Animals (id)</text><text fill="#000000" font-family="sans-serif" font-size="14" lengthAdjust="spacing" textLength="220" x="766.68" y="436.752">PRIMARY KEY (plan_id, animal_id)</text></g><!--MD5=[4b1bbb36bf22db452d2f18c9a96e40ec]
class Species--><g id="elem_Species"><rect codeLine="31" fill="#F1F1F1" height="83.2188" id="Species" rx="2.5" ry="2.5" style="stroke:#181818;stroke-width:0.5;" width="268" x="93.18" y="351.5"/><ellipse cx="197.93" cy="367.5" fill="#ADD1B2" rx="11" ry="11" style="stroke:#181818;stroke-width:1.0;"/><path d="M196.7894,368.2969 L196.7894,370.7969 L201.1175,370.7969 L201.1175,369.875 Q201.1175,369.2656 201.3519,369 Q201.6019,368.7344 201.9769,368.7344 Q202.3519,368.7344 202.5863,369 Q202.8206,369.2656 202.8206,369.875 L202.8206,372.5 L194.8206,372.5 Q194.1956,372.5 193.93,372.2656 Q193.68,372.0313 193.68,371.6406 Q193.68,371.2656 193.9456,371.0313 Q194.2113,370.7969 194.8206,370.7969 L195.0863,370.7969 L195.0863,364.1406 L194.8206,364.1406 Q194.1956,364.1406 193.93,363.9063 Q193.68,363.6719 193.68,363.2813 Q193.68,362.9063 193.93,362.6719 Q194.1956,362.4375 194.8206,362.4375 L202.4456,362.4375 L202.4456,365.0313 Q202.4456,365.6406 202.2113,365.9063 Q201.9925,366.1563 201.6019,366.1563 Q201.2269,366.1563 200.9925,365.9063 Q200.7581,365.6406 200.7581,365.0313 L200.7581,364.1406 L196.7894,364.1406 L196.7894,366.5938 L198.2738,366.5938 Q198.2738,365.9375 198.3988,365.75 Q198.6644,365.3438 199.1331,365.3438 Q199.5081,365.3438 199.7425,365.6094 Q199.9769,365.8594 199.9769,366.4688 L199.9769,368.4375 Q199.9769,368.9844 199.8519,369.1719 Q199.5863,369.5625 199.1331,369.5625 Q198.6644,369.5625 198.3988,369.1563 Q198.2738,368.9688 198.2738,368.2969 L196.7894,368.2969 Z " fill="#000000"/><text fill="#000000" font-family="sans-serif" font-size="14" lengthAdjust="spacing" textLength="50" x="218.43" y="373.2285">Species</text><line style="stroke:#181818;stroke-width:0.5;" x1="94.18" x2="360.18" y1="383.5" y2="383.5"/><text fill="#000000" font-family="sans-serif" font-size="14" lengthAdjust="spacing" textLength="159" x="99.18" y="402.0332">id SERIAL PRIMARY KEY</text><line style="stroke:#181818;stroke-width:1.0;" x1="94.18" x2="360.18" y1="409.1094" y2="409.1094"/><text fill="#000000" font-family="sans-serif" font-size="14" lengthAdjust="spacing" textLength="256" x="99.18" y="427.6426">name VARCHAR(50) NOT NULL UNIQUE</text></g><!--MD5=[ea4cce72e685b6d12198119dfbbae3d2]
class Actions--><g id="elem_Actions"><rect codeLine="37" fill="#F1F1F1" height="100.8281" id="Actions" rx="2.5" ry="2.5" style="stroke:#181818;stroke-width:0.5;" width="276" x="503.18" y="175"/><ellipse cx="613.93" cy="191" fill="#ADD1B2" rx="11" ry="11" style="stroke:#181818;stroke-width:1.0;"/><path d="M612.7894,191.7969 L612.7894,194.2969 L617.1175,194.2969 L617.1175,193.375 Q617.1175,192.7656 617.3519,192.5 Q617.6019,192.2344 617.9769,192.2344 Q618.3519,192.2344 618.5863,192.5 Q618.8206,192.7656 618.8206,193.375 L618.8206,196 L610.8206,196 Q610.1956,196 609.93,195.7656 Q609.68,195.5313 609.68,195.1406 Q609.68,194.7656 609.9456,194.5313 Q610.2113,194.2969 610.8206,194.2969 L611.0863,194.2969 L611.0863,187.6406 L610.8206,187.6406 Q610.1956,187.6406 609.93,187.4063 Q609.68,187.1719 609.68,186.7813 Q609.68,186.4063 609.93,186.1719 Q610.1956,185.9375 610.8206,185.9375 L618.4456,185.9375 L618.4456,188.5313 Q618.4456,189.1406 618.2113,189.4063 Q617.9925,189.6563 617.6019,189.6563 Q617.2269,189.6563 616.9925,189.4063 Q616.7581,189.1406 616.7581,188.5313 L616.7581,187.6406 L612.7894,187.6406 L612.7894,190.0938 L614.2738,190.0938 Q614.2738,189.4375 614.3988,189.25 Q614.6644,188.8438 615.1331,188.8438 Q615.5081,188.8438 615.7425,189.1094 Q615.9769,189.3594 615.9769,189.9688 L615.9769,191.9375 Q615.9769,192.4844 615.8519,192.6719 Q615.5863,193.0625 615.1331,193.0625 Q614.6644,193.0625 614.3988,192.6563 Q614.2738,192.4688 614.2738,191.7969 L612.7894,191.7969 Z " fill="#000000"/><text fill="#000000" font-family="sans-serif" font-size="14" lengthAdjust="spacing" textLength="46" x="634.43" y="196.7285">Actions</text><line style="stroke:#181818;stroke-width:0.5;" x1="504.18" x2="778.18" y1="207" y2="207"/><text fill="#000000" font-family="sans-serif" font-size="14" lengthAdjust="spacing" textLength="159" x="509.18" y="225.5332">id SERIAL PRIMARY KEY</text><line style="stroke:#181818;stroke-width:1.0;" x1="504.18" x2="778.18" y1="232.6094" y2="232.6094"/><text fill="#000000" font-family="sans-serif" font-size="14" lengthAdjust="spacing" textLength="264" x="509.18" y="251.1426">name VARCHAR(100) NOT NULL UNIQUE</text><text fill="#000000" font-family="sans-serif" font-size="14" lengthAdjust="spacing" textLength="179" x="509.18" y="268.752">description TEXT NOT NULL</text></g><!--MD5=[e5189a0600236a438aca5130dc50fb15]
class Plans--><g id="elem_Plans"><rect codeLine="44" fill="#F1F1F1" height="100.8281" id="Plans" rx="2.5" ry="2.5" style="stroke:#181818;stroke-width:0.5;" width="171" x="830.68" y="175"/><ellipse cx="894.43" cy="191" fill="#ADD1B2" rx="11" ry="11" style="stroke:#181818;stroke-width:1.0;"/><path d="M893.2894,191.7969 L893.2894,194.2969 L897.6175,194.2969 L897.6175,193.375 Q897.6175,192.7656 897.8519,192.5 Q898.1019,192.2344 898.4769,192.2344 Q898.8519,192.2344 899.0863,192.5 Q899.3206,192.7656 899.3206,193.375 L899.3206,196 L891.3206,196 Q890.6956,196 890.43,195.7656 Q890.18,195.5313 890.18,195.1406 Q890.18,194.7656 890.4456,194.5313 Q890.7113,194.2969 891.3206,194.2969 L891.5863,194.2969 L891.5863,187.6406 L891.3206,187.6406 Q890.6956,187.6406 890.43,187.4063 Q890.18,187.1719 890.18,186.7813 Q890.18,186.4063 890.43,186.1719 Q890.6956,185.9375 891.3206,185.9375 L898.9456,185.9375 L898.9456,188.5313 Q898.9456,189.1406 898.7113,189.4063 Q898.4925,189.6563 898.1019,189.6563 Q897.7269,189.6563 897.4925,189.4063 Q897.2581,189.1406 897.2581,188.5313 L897.2581,187.6406 L893.2894,187.6406 L893.2894,190.0938 L894.7738,190.0938 Q894.7738,189.4375 894.8988,189.25 Q895.1644,188.8438 895.6331,188.8438 Q896.0081,188.8438 896.2425,189.1094 Q896.4769,189.3594 896.4769,189.9688 L896.4769,191.9375 Q896.4769,192.4844 896.3519,192.6719 Q896.0863,193.0625 895.6331,193.0625 Q895.1644,193.0625 894.8988,192.6563 Q894.7738,192.4688 894.7738,191.7969 L893.2894,191.7969 Z " fill="#000000"/><text fill="#000000" font-family="sans-serif" font-size="14" lengthAdjust="spacing" textLength="35" x="914.93" y="196.7285">Plans</text><line style="stroke:#181818;stroke-width:0.5;" x1="831.68" x2="1000.68" y1="207" y2="207"/><text fill="#000000" font-family="sans-serif" font-size="14" lengthAdjust="spacing" textLength="159" x="836.68" y="225.5332">id SERIAL PRIMARY KEY</text><line style="stroke:#181818;stroke-width:1.0;" x1="831.68" x2="1000.68" y1="232.6094" y2="232.6094"/><text fill="#000000" font-family="sans-serif" font-size="14" lengthAdjust="spacing" textLength="145" x="836.68" y="251.1426">start_time TIMESTAMP</text><text fill="#000000" font-family="sans-serif" font-size="14" lengthAdjust="spacing" textLength="141" x="836.68" y="268.752">end_time TIMESTAMP</text></g><!--MD5=[62696a4d76fd3d50d52a671fb673e99d]
link Humans to Animals--><g id="link_Humans_Animals"><path codeLine="52" d="M24.47,102.31 C25.25,105.35 27.07,108.7 29.18,111 C151.59,244.49 312.59,35.48 432.18,171.5 C444.19,185.16 451.99,210.3 441.19,217.82 " fill="none" id="Humans-Animals" style="stroke:#181818;stroke-width:1.0;"/><line style="stroke:#181818;stroke-width:1.0;" x1="438.0902" x2="435.9889" y1="222.8089" y2="215.0898"/><line style="stroke:#181818;stroke-width:1.0;" x1="440.9849" x2="438.8836" y1="222.0209" y2="214.3018"/><line style="stroke:#181818;stroke-width:1.0;" x1="440.8991" x2="433.18" y1="217.8987" y2="220"/><line style="stroke:#181818;stroke-width:1.0;" x1="23.2136" x2="28.18" y1="104.815" y2="95"/><ellipse cx="23.2136" cy="104.815" fill="none" rx="4" ry="4" style="stroke:#181818;stroke-width:1.0;"/><line style="stroke:#181818;stroke-width:1.0;" x1="22.8049" x2="29.9431" y1="96.7631" y2="100.3751"/></g><!--MD5=[b7c7ba36f5238256a21742fb9582a33d]
link Animals to Species--><g id="link_Animals_Species"><path codeLine="54" d="M52.14,246.4 C6,251.59 84,306.12 150.16,346.93 " fill="none" id="Animals-Species" style="stroke:#181818;stroke-width:1.0;"/><line style="stroke:#181818;stroke-width:1.0;" x1="156.0252" x2="151.8381" y1="345.8281" y2="352.6448"/><line style="stroke:#181818;stroke-width:1.0;" x1="153.469" x2="149.2818" y1="344.2579" y2="351.0746"/><line style="stroke:#181818;stroke-width:1.0;" x1="150.5233" x2="157.34" y1="347.1428" y2="351.33"/><line style="stroke:#181818;stroke-width:1.0;" x1="52.19" x2="59.8804" y1="246.3995" y2="240.0075"/><line style="stroke:#181818;stroke-width:1.0;" x1="52.19" x2="60.4796" y1="246.3995" y2="251.9925"/><line style="stroke:#181818;stroke-width:1.0;" x1="52.19" x2="60.18" y1="246.3995" y2="246"/><ellipse cx="46.1975" cy="246.6991" fill="none" rx="4" ry="4" style="stroke:#181818;stroke-width:1.0;"/></g><!--MD5=[da70dc9c87cda270034e5cc0d260948c]
link Animals to AnimalsToPlans--><g id="link_Animals_AnimalsToPlans"><path codeLine="56" d="M438.39,226.13 C451.42,243.04 486.24,291.79 514.83,332.09 " fill="none" id="Animals-AnimalsToPlans" style="stroke:#181818;stroke-width:1.0;"/><line style="stroke:#181818;stroke-width:1.0;" x1="515.1026" x2="524.6197" y1="332.457" y2="335.527"/><line style="stroke:#181818;stroke-width:1.0;" x1="515.1026" x2="514.8203" y1="332.457" y2="342.453"/><line style="stroke:#181818;stroke-width:1.0;" x1="515.1026" x2="519.72" y1="332.457" y2="338.99"/><ellipse cx="511.6396" cy="327.5573" fill="none" rx="4" ry="4" style="stroke:#181818;stroke-width:1.0;"/><line style="stroke:#181818;stroke-width:1.0;" x1="432.7232" x2="438.8184" y1="225.6384" y2="220.4568"/><line style="stroke:#181818;stroke-width:1.0;" x1="434.6663" x2="440.7615" y1="227.9241" y2="222.7425"/><line style="stroke:#181818;stroke-width:1.0;" x1="438.3616" x2="433.18" y1="226.0952" y2="220"/></g><!--MD5=[53e77abf32d7d52a641b115e357472f3]
link Plans to AnimalsToPlans--><g id="link_Plans_AnimalsToPlans"><path codeLine="57" d="M821.85,220.43 C805.35,227.39 819.34,258.3 804.18,279 C780.17,311.79 760.08,306.88 735.18,339 C722.62,355.2 731.54,379.01 719.16,385.38 " fill="none" id="Plans-AnimalsToPlans" style="stroke:#181818;stroke-width:1.0;"/><line style="stroke:#181818;stroke-width:1.0;" x1="719.0185" x2="712.3793" y1="385.4009" y2="392.8789"/><line style="stroke:#181818;stroke-width:1.0;" x1="719.0185" x2="709.9807" y1="385.4009" y2="381.1211"/><line style="stroke:#181818;stroke-width:1.0;" x1="719.0185" x2="711.18" y1="385.4009" y2="387"/><line style="stroke:#181818;stroke-width:1.0;" x1="721.7777" x2="720.1786" y1="388.9204" y2="381.0818"/><line style="stroke:#181818;stroke-width:1.0;" x1="825.5595" x2="826.9164" y1="215.7364" y2="223.6205"/><line style="stroke:#181818;stroke-width:1.0;" x1="822.603" x2="823.9599" y1="216.2452" y2="224.1293"/><line style="stroke:#181818;stroke-width:1.0;" x1="822.2959" x2="830.18" y1="220.3569" y2="219"/></g><!--MD5=[43df461b90955fb5c0713e2c523b2d2b]
link Plans to PlansToActions--><g id="link_Plans_PlansToActions"><path codeLine="59" d="M822.21,220.19 C804.54,226.48 816.94,256.48 804.18,279 C788.01,307.55 771.54,307.87 761.18,339 C755.6,355.77 743.94,377.68 752.22,384.72 " fill="none" id="Plans-PlansToActions" style="stroke:#181818;stroke-width:1.0;"/><line style="stroke:#181818;stroke-width:1.0;" x1="752.4889" x2="761.8312" y1="384.7985" y2="381.2317"/><line style="stroke:#181818;stroke-width:1.0;" x1="752.4889" x2="758.5288" y1="384.7985" y2="392.7683"/><line style="stroke:#181818;stroke-width:1.0;" x1="752.4889" x2="760.18" y1="384.7985" y2="387"/><line style="stroke:#181818;stroke-width:1.0;" x1="751.6669" x2="749.4653" y1="380.4025" y2="388.0936"/><line style="stroke:#181818;stroke-width:1.0;" x1="825.6315" x2="826.8168" y1="215.6368" y2="223.5485"/><line style="stroke:#181818;stroke-width:1.0;" x1="822.6646" x2="823.8499" y1="216.0813" y2="223.993"/><line style="stroke:#181818;stroke-width:1.0;" x1="822.2683" x2="830.18" y1="220.1853" y2="219"/></g><!--MD5=[1a45b253b73193fc4870d8c5fa29b645]
link Actions to PlansToActions--><g id="link_Actions_PlansToActions"><path codeLine="60" d="M788.46,220.4 C804.91,227.26 791.08,257.75 805.18,279 C817.77,297.98 833.83,316.51 849.8,332.89 " fill="none" id="Actions-PlansToActions" style="stroke:#181818;stroke-width:1.0;"/><line style="stroke:#181818;stroke-width:1.0;" x1="850.0518" x2="859.944" y1="333.1446" y2="334.6088"/><line style="stroke:#181818;stroke-width:1.0;" x1="850.0518" x2="851.416" y1="333.1446" y2="343.0512"/><line style="stroke:#181818;stroke-width:1.0;" x1="850.0518" x2="855.68" y1="333.1446" y2="338.83"/><ellipse cx="845.8306" cy="328.8806" fill="none" rx="4" ry="4" style="stroke:#181818;stroke-width:1.0;"/><line style="stroke:#181818;stroke-width:1.0;" x1="783.4517" x2="784.7947" y1="223.6147" y2="215.7283"/><line style="stroke:#181818;stroke-width:1.0;" x1="786.4092" x2="787.7522" y1="224.1183" y2="216.2319"/><line style="stroke:#181818;stroke-width:1.0;" x1="788.0665" x2="780.18" y1="220.343" y2="219"/></g><!--MD5=[1acc5684c07f5096b2ef80ebcaf9f2c0]
@startuml Data Model

entity Humans {
    id SERIAL PRIMARY KEY
    - -
    name VARCHAR(30) NOT NULL
    animal_id INTEGER REFERENCES Animals (id) NOT NULL UNIQUE
}

entity AnimalsToPlans {
    plan_id INTEGER REFERENCES Plans (id)
    - -
    action_id INTEGER REFERENCES Actions (id)
    PRIMARY KEY (plan_id, action_id)
}


entity Animals {
    id SERIAL PRIMARY KEY
    - -
    species INTEGER REFERENCES Species (id) NOT NULL
    smartness INTEGER CHECK (smartness >= 0)
}

entity PlansToActions {
    plan_id INTEGER REFERENCES Plans (id)
    - -
    animal_id INTEGER REFERENCES Animals (id)
    PRIMARY KEY (plan_id, animal_id)
}

entity Species {
    id SERIAL PRIMARY KEY
    - -
    name VARCHAR(50) NOT NULL UNIQUE
}

entity Actions {
    id SERIAL PRIMARY KEY
    - -
    name VARCHAR(100) NOT NULL UNIQUE
    description TEXT NOT NULL
}

entity Plans {
    id SERIAL PRIMARY KEY
    - -
    start_time TIMESTAMP
    end_time TIMESTAMP
}


Humans::animal_id |o- -|| Animals::id

Animals::species }o- -|| Species

Animals::id ||- -o{ AnimalsToPlans::animal_id
Plans::id ||- -|{ AnimalsToPlans::plan_id

Plans::id ||- -|{ PlansToActions::plan_id
Actions::id ||- -o{ PlansToActions::action_id

@enduml

PlantUML version 1.2022.7(Mon Aug 22 20:01:30 MSK 2022)
(GPL source distribution)
Java Runtime: OpenJDK Runtime Environment
JVM: OpenJDK 64-Bit Server VM
Default Encoding: Cp1252
Language: en
Country: GB
--></g></svg>