<?xml version="1.0" encoding="UTF-8" standalone="no"?><svg xmlns="http://www.w3.org/2000/svg" xmlns:xlink="http://www.w3.org/1999/xlink" contentStyleType="text/css" height="685px" preserveAspectRatio="none" style="width:1911px;height:685px;background:#FFFFFF;" version="1.1" viewBox="0 0 1911 685" width="1911px" zoomAndPan="magnify"><defs/><g><!--MD5=[387b714acd68f5f46d43abb63d155053]
class Humans--><g id="elem_Humans"><rect codeLine="2" fill="#F1F1F1" height="118.4375" id="Humans" rx="2.5" ry="2.5" style="stroke:#181818;stroke-width:0.5;" width="479" x="384.43" y="7"/><ellipse cx="594.18" cy="23" fill="#ADD1B2" rx="11" ry="11" style="stroke:#181818;stroke-width:1.0;"/><path d="M593.0394,23.7969 L593.0394,26.2969 L597.3675,26.2969 L597.3675,25.375 Q597.3675,24.7656 597.6019,24.5 Q597.8519,24.2344 598.2269,24.2344 Q598.6019,24.2344 598.8363,24.5 Q599.0706,24.7656 599.0706,25.375 L599.0706,28 L591.0706,28 Q590.4456,28 590.18,27.7656 Q589.93,27.5313 589.93,27.1406 Q589.93,26.7656 590.1956,26.5313 Q590.4613,26.2969 591.0706,26.2969 L591.3363,26.2969 L591.3363,19.6406 L591.0706,19.6406 Q590.4456,19.6406 590.18,19.4063 Q589.93,19.1719 589.93,18.7813 Q589.93,18.4063 590.18,18.1719 Q590.4456,17.9375 591.0706,17.9375 L598.6956,17.9375 L598.6956,20.5313 Q598.6956,21.1406 598.4613,21.4063 Q598.2425,21.6563 597.8519,21.6563 Q597.4769,21.6563 597.2425,21.4063 Q597.0081,21.1406 597.0081,20.5313 L597.0081,19.6406 L593.0394,19.6406 L593.0394,22.0938 L594.5238,22.0938 Q594.5238,21.4375 594.6488,21.25 Q594.9144,20.8438 595.3831,20.8438 Q595.7581,20.8438 595.9925,21.1094 Q596.2269,21.3594 596.2269,21.9688 L596.2269,23.9375 Q596.2269,24.4844 596.1019,24.6719 Q595.8363,25.0625 595.3831,25.0625 Q594.9144,25.0625 594.6488,24.6563 Q594.5238,24.4688 594.5238,23.7969 L593.0394,23.7969 Z " fill="#000000"/><text fill="#000000" font-family="sans-serif" font-size="14" lengthAdjust="spacing" textLength="51" x="614.68" y="28.7285">Humans</text><line style="stroke:#181818;stroke-width:0.5;" x1="385.43" x2="862.43" y1="39" y2="39"/><text fill="#000000" font-family="sans-serif" font-size="14" lengthAdjust="spacing" textLength="159" x="390.43" y="57.5332">id SERIAL PRIMARY KEY</text><line style="stroke:#181818;stroke-width:1.0;" x1="385.43" x2="862.43" y1="64.6094" y2="64.6094"/><text fill="#000000" font-family="sans-serif" font-size="14" lengthAdjust="spacing" textLength="202" x="390.43" y="83.1426">name VARCHAR(30) NOT NULL</text><text fill="#000000" font-family="sans-serif" font-size="14" lengthAdjust="spacing" textLength="467" x="390.43" y="100.752">FOREIGN KEY (animal_id) REFERENCES Animals (id) NOT NULL UNIQUE</text><text fill="#000000" font-family="sans-serif" font-size="14" lengthAdjust="spacing" textLength="405" x="390.43" y="118.3613">FOREIGN KEY (home_location_id) REFERENCES Locations (id)</text></g><!--MD5=[e86ba3fbd4ca2a35951352852797cca8]
class AnimalsToPlans--><g id="elem_AnimalsToPlans"><rect codeLine="10" fill="#F1F1F1" height="83.2188" id="AnimalsToPlans" rx="2.5" ry="2.5" style="stroke:#181818;stroke-width:0.5;" width="354" x="522.93" y="401.5"/><ellipse cx="645.18" cy="417.5" fill="#ADD1B2" rx="11" ry="11" style="stroke:#181818;stroke-width:1.0;"/><path d="M644.0394,418.2969 L644.0394,420.7969 L648.3675,420.7969 L648.3675,419.875 Q648.3675,419.2656 648.6019,419 Q648.8519,418.7344 649.2269,418.7344 Q649.6019,418.7344 649.8363,419 Q650.0706,419.2656 650.0706,419.875 L650.0706,422.5 L642.0706,422.5 Q641.4456,422.5 641.18,422.2656 Q640.93,422.0313 640.93,421.6406 Q640.93,421.2656 641.1956,421.0313 Q641.4613,420.7969 642.0706,420.7969 L642.3363,420.7969 L642.3363,414.1406 L642.0706,414.1406 Q641.4456,414.1406 641.18,413.9063 Q640.93,413.6719 640.93,413.2813 Q640.93,412.9063 641.18,412.6719 Q641.4456,412.4375 642.0706,412.4375 L649.6956,412.4375 L649.6956,415.0313 Q649.6956,415.6406 649.4613,415.9063 Q649.2425,416.1563 648.8519,416.1563 Q648.4769,416.1563 648.2425,415.9063 Q648.0081,415.6406 648.0081,415.0313 L648.0081,414.1406 L644.0394,414.1406 L644.0394,416.5938 L645.5238,416.5938 Q645.5238,415.9375 645.6488,415.75 Q645.9144,415.3438 646.3831,415.3438 Q646.7581,415.3438 646.9925,415.6094 Q647.2269,415.8594 647.2269,416.4688 L647.2269,418.4375 Q647.2269,418.9844 647.1019,419.1719 Q646.8363,419.5625 646.3831,419.5625 Q645.9144,419.5625 645.6488,419.1563 Q645.5238,418.9688 645.5238,418.2969 L644.0394,418.2969 Z " fill="#000000"/><text fill="#000000" font-family="sans-serif" font-size="14" lengthAdjust="spacing" textLength="101" x="665.68" y="423.2285">AnimalsToPlans</text><line style="stroke:#181818;stroke-width:0.5;" x1="523.93" x2="875.93" y1="433.5" y2="433.5"/><text fill="#000000" font-family="sans-serif" font-size="14" lengthAdjust="spacing" textLength="314" x="528.93" y="452.0332">FOREIGN KEY (plan_id) REFERENCES Plans (id)</text><text fill="#000000" font-family="sans-serif" font-size="14" lengthAdjust="spacing" textLength="342" x="528.93" y="469.6426">FOREIGN KEY (animal_id) REFERENCES Animals (id)</text><line style="stroke:#181818;stroke-width:1.0;" x1="523.93" x2="875.93" y1="476.7188" y2="476.7188"/></g><!--MD5=[0d10cc31e7d99b95ca38c91b83c4b36e]
class Animals--><g id="elem_Animals"><rect codeLine="17" fill="#F1F1F1" height="136.0469" id="Animals" rx="2.5" ry="2.5" style="stroke:#181818;stroke-width:0.5;" width="498" x="938.93" y="192"/><ellipse cx="1159.18" cy="208" fill="#ADD1B2" rx="11" ry="11" style="stroke:#181818;stroke-width:1.0;"/><path d="M1158.0394,208.7969 L1158.0394,211.2969 L1162.3675,211.2969 L1162.3675,210.375 Q1162.3675,209.7656 1162.6019,209.5 Q1162.8519,209.2344 1163.2269,209.2344 Q1163.6019,209.2344 1163.8362,209.5 Q1164.0706,209.7656 1164.0706,210.375 L1164.0706,213 L1156.0706,213 Q1155.4456,213 1155.18,212.7656 Q1154.93,212.5313 1154.93,212.1406 Q1154.93,211.7656 1155.1956,211.5313 Q1155.4612,211.2969 1156.0706,211.2969 L1156.3362,211.2969 L1156.3362,204.6406 L1156.0706,204.6406 Q1155.4456,204.6406 1155.18,204.4063 Q1154.93,204.1719 1154.93,203.7813 Q1154.93,203.4063 1155.18,203.1719 Q1155.4456,202.9375 1156.0706,202.9375 L1163.6956,202.9375 L1163.6956,205.5313 Q1163.6956,206.1406 1163.4612,206.4063 Q1163.2425,206.6563 1162.8519,206.6563 Q1162.4769,206.6563 1162.2425,206.4063 Q1162.0081,206.1406 1162.0081,205.5313 L1162.0081,204.6406 L1158.0394,204.6406 L1158.0394,207.0938 L1159.5237,207.0938 Q1159.5237,206.4375 1159.6487,206.25 Q1159.9144,205.8438 1160.3831,205.8438 Q1160.7581,205.8438 1160.9925,206.1094 Q1161.2269,206.3594 1161.2269,206.9688 L1161.2269,208.9375 Q1161.2269,209.4844 1161.1019,209.6719 Q1160.8362,210.0625 1160.3831,210.0625 Q1159.9144,210.0625 1159.6487,209.6563 Q1159.5237,209.4688 1159.5237,208.7969 L1158.0394,208.7969 Z " fill="#000000"/><text fill="#000000" font-family="sans-serif" font-size="14" lengthAdjust="spacing" textLength="49" x="1179.68" y="213.7285">Animals</text><line style="stroke:#181818;stroke-width:0.5;" x1="939.93" x2="1435.93" y1="224" y2="224"/><text fill="#000000" font-family="sans-serif" font-size="14" lengthAdjust="spacing" textLength="159" x="944.93" y="242.5332">id SERIAL PRIMARY KEY</text><line style="stroke:#181818;stroke-width:1.0;" x1="939.93" x2="1435.93" y1="249.6094" y2="249.6094"/><text fill="#000000" font-family="sans-serif" font-size="14" lengthAdjust="spacing" textLength="402" x="944.93" y="268.1426">FOREIGN KEY (species) REFERENCES Species (id) NOT NULL</text><text fill="#000000" font-family="sans-serif" font-size="14" lengthAdjust="spacing" textLength="291" x="944.93" y="285.752">smartness INTEGER CHECK (smartness &gt;= 0)</text><text fill="#000000" font-family="sans-serif" font-size="14" lengthAdjust="spacing" textLength="486" x="944.93" y="303.3613">FOREIGN KEY (current_location_id) REFERENCES Locations (id) NOT NULL</text><text fill="#000000" font-family="sans-serif" font-size="14" lengthAdjust="spacing" textLength="418" x="944.93" y="320.9707">FOREIGN KEY (animal_pack_id) REFERENCES AnimalsPacks (id)</text></g><!--MD5=[9381ad81d05f55ea841a37b4dd7f50a4]
class PlansToActions--><g id="elem_PlansToActions"><rect codeLine="26" fill="#F1F1F1" height="83.2188" id="PlansToActions" rx="2.5" ry="2.5" style="stroke:#181818;stroke-width:0.5;" width="348" x="123.93" y="401.5"/><ellipse cx="244.68" cy="417.5" fill="#ADD1B2" rx="11" ry="11" style="stroke:#181818;stroke-width:1.0;"/><path d="M243.5394,418.2969 L243.5394,420.7969 L247.8675,420.7969 L247.8675,419.875 Q247.8675,419.2656 248.1019,419 Q248.3519,418.7344 248.7269,418.7344 Q249.1019,418.7344 249.3363,419 Q249.5706,419.2656 249.5706,419.875 L249.5706,422.5 L241.5706,422.5 Q240.9456,422.5 240.68,422.2656 Q240.43,422.0313 240.43,421.6406 Q240.43,421.2656 240.6956,421.0313 Q240.9613,420.7969 241.5706,420.7969 L241.8363,420.7969 L241.8363,414.1406 L241.5706,414.1406 Q240.9456,414.1406 240.68,413.9063 Q240.43,413.6719 240.43,413.2813 Q240.43,412.9063 240.68,412.6719 Q240.9456,412.4375 241.5706,412.4375 L249.1956,412.4375 L249.1956,415.0313 Q249.1956,415.6406 248.9613,415.9063 Q248.7425,416.1563 248.3519,416.1563 Q247.9769,416.1563 247.7425,415.9063 Q247.5081,415.6406 247.5081,415.0313 L247.5081,414.1406 L243.5394,414.1406 L243.5394,416.5938 L245.0238,416.5938 Q245.0238,415.9375 245.1488,415.75 Q245.4144,415.3438 245.8831,415.3438 Q246.2581,415.3438 246.4925,415.6094 Q246.7269,415.8594 246.7269,416.4688 L246.7269,418.4375 Q246.7269,418.9844 246.6019,419.1719 Q246.3363,419.5625 245.8831,419.5625 Q245.4144,419.5625 245.1488,419.1563 Q245.0238,418.9688 245.0238,418.2969 L243.5394,418.2969 Z " fill="#000000"/><text fill="#000000" font-family="sans-serif" font-size="14" lengthAdjust="spacing" textLength="98" x="265.18" y="423.2285">PlansToActions</text><line style="stroke:#181818;stroke-width:0.5;" x1="124.93" x2="470.93" y1="433.5" y2="433.5"/><text fill="#000000" font-family="sans-serif" font-size="14" lengthAdjust="spacing" textLength="314" x="129.93" y="452.0332">FOREIGN KEY (plan_id) REFERENCES Plans (id)</text><text fill="#000000" font-family="sans-serif" font-size="14" lengthAdjust="spacing" textLength="336" x="129.93" y="469.6426">FOREIGN KEY (action_id) REFERENCES Actions (id)</text><line style="stroke:#181818;stroke-width:1.0;" x1="124.93" x2="470.93" y1="476.7188" y2="476.7188"/></g><!--MD5=[4b1bbb36bf22db452d2f18c9a96e40ec]
class Species--><g id="elem_Species"><rect codeLine="32" fill="#F1F1F1" height="83.2188" id="Species" rx="2.5" ry="2.5" style="stroke:#181818;stroke-width:0.5;" width="268" x="1498.93" y="401.5"/><ellipse cx="1603.68" cy="417.5" fill="#ADD1B2" rx="11" ry="11" style="stroke:#181818;stroke-width:1.0;"/><path d="M1602.5394,418.2969 L1602.5394,420.7969 L1606.8675,420.7969 L1606.8675,419.875 Q1606.8675,419.2656 1607.1019,419 Q1607.3519,418.7344 1607.7269,418.7344 Q1608.1019,418.7344 1608.3363,419 Q1608.5706,419.2656 1608.5706,419.875 L1608.5706,422.5 L1600.5706,422.5 Q1599.9456,422.5 1599.68,422.2656 Q1599.43,422.0313 1599.43,421.6406 Q1599.43,421.2656 1599.6956,421.0313 Q1599.9613,420.7969 1600.5706,420.7969 L1600.8363,420.7969 L1600.8363,414.1406 L1600.5706,414.1406 Q1599.9456,414.1406 1599.68,413.9063 Q1599.43,413.6719 1599.43,413.2813 Q1599.43,412.9063 1599.68,412.6719 Q1599.9456,412.4375 1600.5706,412.4375 L1608.1956,412.4375 L1608.1956,415.0313 Q1608.1956,415.6406 1607.9613,415.9063 Q1607.7425,416.1563 1607.3519,416.1563 Q1606.9769,416.1563 1606.7425,415.9063 Q1606.5081,415.6406 1606.5081,415.0313 L1606.5081,414.1406 L1602.5394,414.1406 L1602.5394,416.5938 L1604.0238,416.5938 Q1604.0238,415.9375 1604.1488,415.75 Q1604.4144,415.3438 1604.8831,415.3438 Q1605.2581,415.3438 1605.4925,415.6094 Q1605.7269,415.8594 1605.7269,416.4688 L1605.7269,418.4375 Q1605.7269,418.9844 1605.6019,419.1719 Q1605.3363,419.5625 1604.8831,419.5625 Q1604.4144,419.5625 1604.1488,419.1563 Q1604.0238,418.9688 1604.0238,418.2969 L1602.5394,418.2969 Z " fill="#000000"/><text fill="#000000" font-family="sans-serif" font-size="14" lengthAdjust="spacing" textLength="50" x="1624.18" y="423.2285">Species</text><line style="stroke:#181818;stroke-width:0.5;" x1="1499.93" x2="1765.93" y1="433.5" y2="433.5"/><text fill="#000000" font-family="sans-serif" font-size="14" lengthAdjust="spacing" textLength="159" x="1504.93" y="452.0332">id SERIAL PRIMARY KEY</text><line style="stroke:#181818;stroke-width:1.0;" x1="1499.93" x2="1765.93" y1="459.1094" y2="459.1094"/><text fill="#000000" font-family="sans-serif" font-size="14" lengthAdjust="spacing" textLength="256" x="1504.93" y="477.6426">name VARCHAR(50) NOT NULL UNIQUE</text></g><!--MD5=[ea4cce72e685b6d12198119dfbbae3d2]
class Actions--><g id="elem_Actions"><rect codeLine="38" fill="#F1F1F1" height="100.8281" id="Actions" rx="2.5" ry="2.5" style="stroke:#181818;stroke-width:0.5;" width="276" x="159.93" y="208.5"/><ellipse cx="270.68" cy="224.5" fill="#ADD1B2" rx="11" ry="11" style="stroke:#181818;stroke-width:1.0;"/><path d="M269.5394,225.2969 L269.5394,227.7969 L273.8675,227.7969 L273.8675,226.875 Q273.8675,226.2656 274.1019,226 Q274.3519,225.7344 274.7269,225.7344 Q275.1019,225.7344 275.3363,226 Q275.5706,226.2656 275.5706,226.875 L275.5706,229.5 L267.5706,229.5 Q266.9456,229.5 266.68,229.2656 Q266.43,229.0313 266.43,228.6406 Q266.43,228.2656 266.6956,228.0313 Q266.9613,227.7969 267.5706,227.7969 L267.8363,227.7969 L267.8363,221.1406 L267.5706,221.1406 Q266.9456,221.1406 266.68,220.9063 Q266.43,220.6719 266.43,220.2813 Q266.43,219.9063 266.68,219.6719 Q266.9456,219.4375 267.5706,219.4375 L275.1956,219.4375 L275.1956,222.0313 Q275.1956,222.6406 274.9613,222.9063 Q274.7425,223.1563 274.3519,223.1563 Q273.9769,223.1563 273.7425,222.9063 Q273.5081,222.6406 273.5081,222.0313 L273.5081,221.1406 L269.5394,221.1406 L269.5394,223.5938 L271.0238,223.5938 Q271.0238,222.9375 271.1488,222.75 Q271.4144,222.3438 271.8831,222.3438 Q272.2581,222.3438 272.4925,222.6094 Q272.7269,222.8594 272.7269,223.4688 L272.7269,225.4375 Q272.7269,225.9844 272.6019,226.1719 Q272.3363,226.5625 271.8831,226.5625 Q271.4144,226.5625 271.1488,226.1563 Q271.0238,225.9688 271.0238,225.2969 L269.5394,225.2969 Z " fill="#000000"/><text fill="#000000" font-family="sans-serif" font-size="14" lengthAdjust="spacing" textLength="46" x="291.18" y="230.2285">Actions</text><line style="stroke:#181818;stroke-width:0.5;" x1="160.93" x2="434.93" y1="240.5" y2="240.5"/><text fill="#000000" font-family="sans-serif" font-size="14" lengthAdjust="spacing" textLength="159" x="165.93" y="259.0332">id SERIAL PRIMARY KEY</text><line style="stroke:#181818;stroke-width:1.0;" x1="160.93" x2="434.93" y1="266.1094" y2="266.1094"/><text fill="#000000" font-family="sans-serif" font-size="14" lengthAdjust="spacing" textLength="264" x="165.93" y="284.6426">name VARCHAR(100) NOT NULL UNIQUE</text><text fill="#000000" font-family="sans-serif" font-size="14" lengthAdjust="spacing" textLength="179" x="165.93" y="302.252">description TEXT NOT NULL</text></g><!--MD5=[e5189a0600236a438aca5130dc50fb15]
class Plans--><g id="elem_Plans"><rect codeLine="45" fill="#F1F1F1" height="100.8281" id="Plans" rx="2.5" ry="2.5" style="stroke:#181818;stroke-width:0.5;" width="171" x="550.43" y="208.5"/><ellipse cx="614.18" cy="224.5" fill="#ADD1B2" rx="11" ry="11" style="stroke:#181818;stroke-width:1.0;"/><path d="M613.0394,225.2969 L613.0394,227.7969 L617.3675,227.7969 L617.3675,226.875 Q617.3675,226.2656 617.6019,226 Q617.8519,225.7344 618.2269,225.7344 Q618.6019,225.7344 618.8363,226 Q619.0706,226.2656 619.0706,226.875 L619.0706,229.5 L611.0706,229.5 Q610.4456,229.5 610.18,229.2656 Q609.93,229.0313 609.93,228.6406 Q609.93,228.2656 610.1956,228.0313 Q610.4613,227.7969 611.0706,227.7969 L611.3363,227.7969 L611.3363,221.1406 L611.0706,221.1406 Q610.4456,221.1406 610.18,220.9063 Q609.93,220.6719 609.93,220.2813 Q609.93,219.9063 610.18,219.6719 Q610.4456,219.4375 611.0706,219.4375 L618.6956,219.4375 L618.6956,222.0313 Q618.6956,222.6406 618.4613,222.9063 Q618.2425,223.1563 617.8519,223.1563 Q617.4769,223.1563 617.2425,222.9063 Q617.0081,222.6406 617.0081,222.0313 L617.0081,221.1406 L613.0394,221.1406 L613.0394,223.5938 L614.5238,223.5938 Q614.5238,222.9375 614.6488,222.75 Q614.9144,222.3438 615.3831,222.3438 Q615.7581,222.3438 615.9925,222.6094 Q616.2269,222.8594 616.2269,223.4688 L616.2269,225.4375 Q616.2269,225.9844 616.1019,226.1719 Q615.8363,226.5625 615.3831,226.5625 Q614.9144,226.5625 614.6488,226.1563 Q614.5238,225.9688 614.5238,225.2969 L613.0394,225.2969 Z " fill="#000000"/><text fill="#000000" font-family="sans-serif" font-size="14" lengthAdjust="spacing" textLength="35" x="634.68" y="230.2285">Plans</text><line style="stroke:#181818;stroke-width:0.5;" x1="551.43" x2="720.43" y1="240.5" y2="240.5"/><text fill="#000000" font-family="sans-serif" font-size="14" lengthAdjust="spacing" textLength="159" x="556.43" y="259.0332">id SERIAL PRIMARY KEY</text><line style="stroke:#181818;stroke-width:1.0;" x1="551.43" x2="720.43" y1="266.1094" y2="266.1094"/><text fill="#000000" font-family="sans-serif" font-size="14" lengthAdjust="spacing" textLength="145" x="556.43" y="284.6426">start_time TIMESTAMP</text><text fill="#000000" font-family="sans-serif" font-size="14" lengthAdjust="spacing" textLength="141" x="556.43" y="302.252">end_time TIMESTAMP</text></g><!--MD5=[e319370dad6ef7da0b7f42fed8221c68]
class Locations--><g id="elem_Locations"><rect codeLine="52" fill="#F1F1F1" height="118.4375" id="Locations" rx="2.5" ry="2.5" style="stroke:#181818;stroke-width:0.5;" width="220" x="1077.93" y="560"/><ellipse cx="1153.18" cy="576" fill="#ADD1B2" rx="11" ry="11" style="stroke:#181818;stroke-width:1.0;"/><path d="M1152.0394,576.7969 L1152.0394,579.2969 L1156.3675,579.2969 L1156.3675,578.375 Q1156.3675,577.7656 1156.6019,577.5 Q1156.8519,577.2344 1157.2269,577.2344 Q1157.6019,577.2344 1157.8363,577.5 Q1158.0706,577.7656 1158.0706,578.375 L1158.0706,581 L1150.0706,581 Q1149.4456,581 1149.18,580.7656 Q1148.93,580.5313 1148.93,580.1406 Q1148.93,579.7656 1149.1956,579.5313 Q1149.4613,579.2969 1150.0706,579.2969 L1150.3363,579.2969 L1150.3363,572.6406 L1150.0706,572.6406 Q1149.4456,572.6406 1149.18,572.4063 Q1148.93,572.1719 1148.93,571.7813 Q1148.93,571.4063 1149.18,571.1719 Q1149.4456,570.9375 1150.0706,570.9375 L1157.6956,570.9375 L1157.6956,573.5313 Q1157.6956,574.1406 1157.4613,574.4063 Q1157.2425,574.6563 1156.8519,574.6563 Q1156.4769,574.6563 1156.2425,574.4063 Q1156.0081,574.1406 1156.0081,573.5313 L1156.0081,572.6406 L1152.0394,572.6406 L1152.0394,575.0938 L1153.5238,575.0938 Q1153.5238,574.4375 1153.6488,574.25 Q1153.9144,573.8438 1154.3831,573.8438 Q1154.7581,573.8438 1154.9925,574.1094 Q1155.2269,574.3594 1155.2269,574.9688 L1155.2269,576.9375 Q1155.2269,577.4844 1155.1019,577.6719 Q1154.8363,578.0625 1154.3831,578.0625 Q1153.9144,578.0625 1153.6488,577.6563 Q1153.5238,577.4688 1153.5238,576.7969 L1152.0394,576.7969 Z " fill="#000000"/><text fill="#000000" font-family="sans-serif" font-size="14" lengthAdjust="spacing" textLength="61" x="1173.68" y="581.7285">Locations</text><line style="stroke:#181818;stroke-width:0.5;" x1="1078.93" x2="1296.93" y1="592" y2="592"/><text fill="#000000" font-family="sans-serif" font-size="14" lengthAdjust="spacing" textLength="159" x="1083.93" y="610.5332">id SERIAL PRIMARY KEY</text><line style="stroke:#181818;stroke-width:1.0;" x1="1078.93" x2="1296.93" y1="617.6094" y2="617.6094"/><text fill="#000000" font-family="sans-serif" font-size="14" lengthAdjust="spacing" textLength="164" x="1083.93" y="636.1426">name char(50) NOT NULL</text><text fill="#000000" font-family="sans-serif" font-size="14" lengthAdjust="spacing" textLength="179" x="1083.93" y="653.752">description TEXT NOT NULL</text><text fill="#000000" font-family="sans-serif" font-size="14" lengthAdjust="spacing" textLength="208" x="1083.93" y="671.3613">placement POLYGON NOT NULL</text></g><!--MD5=[2a52c8523466e46211a873f948c5263d]
class AnimalsPacks--><g id="elem_AnimalsPacks"><rect codeLine="60" fill="#F1F1F1" height="100.8281" id="AnimalsPacks" rx="2.5" ry="2.5" style="stroke:#181818;stroke-width:0.5;" width="520" x="927.93" y="393"/><ellipse cx="1140.18" cy="409" fill="#ADD1B2" rx="11" ry="11" style="stroke:#181818;stroke-width:1.0;"/><path d="M1139.0394,409.7969 L1139.0394,412.2969 L1143.3675,412.2969 L1143.3675,411.375 Q1143.3675,410.7656 1143.6019,410.5 Q1143.8519,410.2344 1144.2269,410.2344 Q1144.6019,410.2344 1144.8362,410.5 Q1145.0706,410.7656 1145.0706,411.375 L1145.0706,414 L1137.0706,414 Q1136.4456,414 1136.18,413.7656 Q1135.93,413.5313 1135.93,413.1406 Q1135.93,412.7656 1136.1956,412.5313 Q1136.4612,412.2969 1137.0706,412.2969 L1137.3362,412.2969 L1137.3362,405.6406 L1137.0706,405.6406 Q1136.4456,405.6406 1136.18,405.4063 Q1135.93,405.1719 1135.93,404.7813 Q1135.93,404.4063 1136.18,404.1719 Q1136.4456,403.9375 1137.0706,403.9375 L1144.6956,403.9375 L1144.6956,406.5313 Q1144.6956,407.1406 1144.4612,407.4063 Q1144.2425,407.6563 1143.8519,407.6563 Q1143.4769,407.6563 1143.2425,407.4063 Q1143.0081,407.1406 1143.0081,406.5313 L1143.0081,405.6406 L1139.0394,405.6406 L1139.0394,408.0938 L1140.5237,408.0938 Q1140.5237,407.4375 1140.6487,407.25 Q1140.9144,406.8438 1141.3831,406.8438 Q1141.7581,406.8438 1141.9925,407.1094 Q1142.2269,407.3594 1142.2269,407.9688 L1142.2269,409.9375 Q1142.2269,410.4844 1142.1019,410.6719 Q1141.8362,411.0625 1141.3831,411.0625 Q1140.9144,411.0625 1140.6487,410.6563 Q1140.5237,410.4688 1140.5237,409.7969 L1139.0394,409.7969 Z " fill="#000000"/><text fill="#000000" font-family="sans-serif" font-size="14" lengthAdjust="spacing" textLength="87" x="1160.68" y="414.7285">AnimalsPacks</text><line style="stroke:#181818;stroke-width:0.5;" x1="928.93" x2="1446.93" y1="425" y2="425"/><text fill="#000000" font-family="sans-serif" font-size="14" lengthAdjust="spacing" textLength="159" x="933.93" y="443.5332">id SERIAL PRIMARY KEY</text><line style="stroke:#181818;stroke-width:1.0;" x1="928.93" x2="1446.93" y1="450.6094" y2="450.6094"/><text fill="#000000" font-family="sans-serif" font-size="14" lengthAdjust="spacing" textLength="508" x="933.93" y="469.1426">FOREIGN KEY (leader_animal_id) REFERENCES Animal (id) NOT NULL UNIQUE</text><text fill="#000000" font-family="sans-serif" font-size="14" lengthAdjust="spacing" textLength="484" x="933.93" y="486.752">FOREIGN KEY (habitat_location_id) REFERENCES Locations (id) NOT NULL</text></g><!--MD5=[62696a4d76fd3d50d52a671fb673e99d]
link Humans to Animals--><g id="link_Humans_Animals"><path codeLine="68" d="M872.93,96.19 C927.69,106.37 875.19,225.58 929.9,235.8 " fill="none" id="Humans-Animals" style="stroke:#181818;stroke-width:1.0;"/><line style="stroke:#181818;stroke-width:1.0;" x1="934.2875" x2="933.6019" y1="232.1719" y2="240.1425"/><line style="stroke:#181818;stroke-width:1.0;" x1="931.2986" x2="930.6129" y1="231.9148" y2="239.8853"/><line style="stroke:#181818;stroke-width:1.0;" x1="929.9594" x2="937.93" y1="235.8144" y2="236.5"/><line style="stroke:#181818;stroke-width:1.0;" x1="875.8895" x2="864.93" y1="96.4428" y2="95.5"/><ellipse cx="875.8895" cy="96.4428" fill="none" rx="4" ry="4" style="stroke:#181818;stroke-width:1.0;"/><line style="stroke:#181818;stroke-width:1.0;" x1="868.5725" x2="869.2581" y1="99.8281" y2="91.8575"/></g><!--MD5=[f129be1c2987532f296331bbf5148d41]
link Humans to Locations--><g id="link_Humans_Locations"><path codeLine="69" d="M375.55,112.69 C312.35,115.41 170.79,146.6 133.93,188 C42.29,290.94 6,393.32 97.93,496 C169.29,575.71 932.07,603.26 1068.53,604.46 " fill="none" id="Humans-Locations" style="stroke:#181818;stroke-width:1.0;"/><line style="stroke:#181818;stroke-width:1.0;" x1="1065.9302" x2="1076.93" y1="604.4411" y2="604.5"/><ellipse cx="1065.9302" cy="604.4411" fill="none" rx="4" ry="4" style="stroke:#181818;stroke-width:1.0;"/><line style="stroke:#181818;stroke-width:1.0;" x1="1072.9515" x2="1072.9086" y1="600.4786" y2="608.4785"/><line style="stroke:#181818;stroke-width:1.0;" x1="375.9322" x2="383.7908" y1="112.6857" y2="106.5016"/><line style="stroke:#181818;stroke-width:1.0;" x1="375.9322" x2="384.0692" y1="112.6857" y2="118.4984"/><line style="stroke:#181818;stroke-width:1.0;" x1="375.9322" x2="383.93" y1="112.6857" y2="112.5"/><ellipse cx="369.9338" cy="112.8249" fill="none" rx="4" ry="4" style="stroke:#181818;stroke-width:1.0;"/></g><!--MD5=[b7c7ba36f5238256a21742fb9582a33d]
link Animals to Species--><g id="link_Animals_Species"><path codeLine="71" d="M1444.35,267.81 C1460.83,294.56 1475.02,414.37 1491.5,441.17 " fill="none" id="Animals-Species" style="stroke:#181818;stroke-width:1.0;"/><line style="stroke:#181818;stroke-width:1.0;" x1="1497.4088" x2="1492.2972" y1="440.8672" y2="447.0212"/><line style="stroke:#181818;stroke-width:1.0;" x1="1495.1011" x2="1489.9895" y1="438.9503" y2="445.1043"/><line style="stroke:#181818;stroke-width:1.0;" x1="1491.776" x2="1497.93" y1="441.3884" y2="446.5"/><line style="stroke:#181818;stroke-width:1.0;" x1="1444.0968" x2="1434.1079" y1="267.5962" y2="267.1251"/><line style="stroke:#181818;stroke-width:1.0;" x1="1444.0968" x2="1441.7521" y1="267.5962" y2="257.8749"/><line style="stroke:#181818;stroke-width:1.0;" x1="1444.0968" x2="1437.93" y1="267.5962" y2="262.5"/><ellipse cx="1448.7219" cy="271.4183" fill="none" rx="4" ry="4" style="stroke:#181818;stroke-width:1.0;"/></g><!--MD5=[f411ad30e5dfd39f855bb1f852b7d6b4]
link Animals to Locations--><g id="link_Animals_Locations"><path codeLine="72" d="M1445.95,296.54 C1627.25,298.23 1904.69,357.03 1792.93,496 C1724.15,581.53 1425.78,603.48 1307.16,604.46 " fill="none" id="Animals-Locations" style="stroke:#181818;stroke-width:1.0;"/><line style="stroke:#181818;stroke-width:1.0;" x1="1302.9443" x2="1302.9157" y1="608.4857" y2="600.4857"/><line style="stroke:#181818;stroke-width:1.0;" x1="1305.9442" x2="1305.9157" y1="608.475" y2="600.475"/><line style="stroke:#181818;stroke-width:1.0;" x1="1306.9299" x2="1298.93" y1="604.4714" y2="604.5"/><line style="stroke:#181818;stroke-width:1.0;" x1="1445.9299" x2="1437.8979" y1="296.5429" y2="302.4999"/><line style="stroke:#181818;stroke-width:1.0;" x1="1445.9299" x2="1437.9621" y1="296.5429" y2="290.5001"/><line style="stroke:#181818;stroke-width:1.0;" x1="1445.9299" x2="1437.93" y1="296.5429" y2="296.5"/><ellipse cx="1451.9298" cy="296.575" fill="none" rx="4" ry="4" style="stroke:#181818;stroke-width:1.0;"/></g><!--MD5=[62e494a67de8510b367ed70d924d3b66]
link Animals to AnimalsPacks--><g id="link_Animals_AnimalsPacks"><path codeLine="73" d="M1445.54,316.82 C1464.82,334.23 1472.16,414.95 1456.44,433.63 " fill="none" id="Animals-AnimalsPacks" style="stroke:#181818;stroke-width:1.0;"/><line style="stroke:#181818;stroke-width:1.0;" x1="1458.7051" x2="1448.93" y1="432.4554" y2="437.5"/><ellipse cx="1458.7051" cy="432.4554" fill="none" rx="4" ry="4" style="stroke:#181818;stroke-width:1.0;"/><line style="stroke:#181818;stroke-width:1.0;" x1="1454.319" x2="1450.6502" y1="439.2202" y2="432.111"/><line style="stroke:#181818;stroke-width:1.0;" x1="1445.2668" x2="1435.538" y1="316.6893" y2="319.0026"/><line style="stroke:#181818;stroke-width:1.0;" x1="1445.2668" x2="1440.322" y1="316.6893" y2="307.9974"/><line style="stroke:#181818;stroke-width:1.0;" x1="1445.2668" x2="1437.93" y1="316.6893" y2="313.5"/><line style="stroke:#181818;stroke-width:1.0;" x1="1445.5063" x2="1448.6956" y1="321.155" y2="313.8182"/></g><!--MD5=[b3a39cbae24615873e0f90f199fc174c]
link AnimalsPacks to Animals--><g id="link_AnimalsPacks_Animals"><path codeLine="81" d="M1454.45,459.12 C1470.68,430.42 1462.87,269.4 1443.85,240.83 " fill="none" id="AnimalsPacks-Animals" style="stroke:#181818;stroke-width:1.0;"/><line style="stroke:#181818;stroke-width:1.0;" x1="1438.7871" x2="1443.5215" y1="242.0915" y2="235.6429"/><line style="stroke:#181818;stroke-width:1.0;" x1="1441.2053" x2="1445.9398" y1="243.867" y2="237.4183"/><line style="stroke:#181818;stroke-width:1.0;" x1="1444.3786" x2="1437.93" y1="241.2344" y2="236.5"/><line style="stroke:#181818;stroke-width:1.0;" x1="1454.55" x2="1449.5744" y1="464.1444" y2="457.88"/><line style="stroke:#181818;stroke-width:1.0;" x1="1456.8992" x2="1451.9235" y1="462.2785" y2="456.0141"/><line style="stroke:#181818;stroke-width:1.0;" x1="1455.1944" x2="1448.93" y1="458.5244" y2="463.5"/></g><!--MD5=[da70dc9c87cda270034e5cc0d260948c]
link Animals to AnimalsToPlans--><g id="link_Animals_AnimalsToPlans"><path codeLine="75" d="M933.16,243.54 C919.75,277.37 896.07,422.9 882.67,456.54 " fill="none" id="Animals-AnimalsToPlans" style="stroke:#181818;stroke-width:1.0;"/><line style="stroke:#181818;stroke-width:1.0;" x1="882.4398" x2="882.8858" y1="456.8923" y2="466.8823"/><line style="stroke:#181818;stroke-width:1.0;" x1="882.4398" x2="872.9742" y1="456.8923" y2="460.1177"/><line style="stroke:#181818;stroke-width:1.0;" x1="882.4398" x2="877.93" y1="456.8923" y2="463.5"/><ellipse cx="885.8221" cy="451.9365" fill="none" rx="4" ry="4" style="stroke:#181818;stroke-width:1.0;"/><line style="stroke:#181818;stroke-width:1.0;" x1="932.3744" x2="938.9954" y1="237.5654" y2="242.0556"/><line style="stroke:#181818;stroke-width:1.0;" x1="930.6905" x2="937.3115" y1="240.0482" y2="244.5385"/><line style="stroke:#181818;stroke-width:1.0;" x1="933.4397" x2="937.93" y1="243.121" y2="236.5"/></g><!--MD5=[53e77abf32d7d52a641b115e357472f3]
link Plans to AnimalsToPlans--><g id="link_Plans_AnimalsToPlans"><path codeLine="76" d="M731.16,254.17 C746.37,261.72 734.95,293.13 721.93,312.5 C668.27,392.31 576.74,317.79 522.93,397.5 C512.65,412.73 503.5,437.14 513.98,444.4 " fill="none" id="Plans-AnimalsToPlans" style="stroke:#181818;stroke-width:1.0;"/><line style="stroke:#181818;stroke-width:1.0;" x1="514.1947" x2="523.4606" y1="444.4591" y2="440.6985"/><line style="stroke:#181818;stroke-width:1.0;" x1="514.1947" x2="520.3994" y1="444.4591" y2="452.3015"/><line style="stroke:#181818;stroke-width:1.0;" x1="514.1947" x2="521.93" y1="444.4591" y2="446.5"/><line style="stroke:#181818;stroke-width:1.0;" x1="513.2813" x2="511.2404" y1="440.0813" y2="447.8166"/><line style="stroke:#181818;stroke-width:1.0;" x1="726.0497" x2="727.6488" y1="257.2188" y2="249.3803"/><line style="stroke:#181818;stroke-width:1.0;" x1="728.9892" x2="730.5883" y1="257.8185" y2="249.98"/><line style="stroke:#181818;stroke-width:1.0;" x1="730.7685" x2="722.93" y1="254.0991" y2="252.5"/></g><!--MD5=[43df461b90955fb5c0713e2c523b2d2b]
link Plans to PlansToActions--><g id="link_Plans_PlansToActions"><path codeLine="78" d="M545.84,259.4 C532.11,289.51 490.88,409.13 477.08,439.48 " fill="none" id="Plans-PlansToActions" style="stroke:#181818;stroke-width:1.0;"/><line style="stroke:#181818;stroke-width:1.0;" x1="476.9912" x2="478.0994" y1="439.6075" y2="449.5459"/><line style="stroke:#181818;stroke-width:1.0;" x1="476.9912" x2="467.7606" y1="439.6075" y2="443.4541"/><line style="stroke:#181818;stroke-width:1.0;" x1="476.9912" x2="472.93" y1="439.6075" y2="446.5"/><line style="stroke:#181818;stroke-width:1.0;" x1="481.4527" x2="474.5602" y1="439.9149" y2="435.8538"/><line style="stroke:#181818;stroke-width:1.0;" x1="544.4488" x2="551.3288" y1="253.8988" y2="257.9812"/><line style="stroke:#181818;stroke-width:1.0;" x1="542.918" x2="549.798" y1="256.4788" y2="260.5612"/><line style="stroke:#181818;stroke-width:1.0;" x1="545.8477" x2="549.93" y1="259.38" y2="252.5"/></g><!--MD5=[1a45b253b73193fc4870d8c5fa29b645]
link Actions to PlansToActions--><g id="link_Actions_PlansToActions"><path codeLine="79" d="M444.89,254.45 C485.43,274.31 513.83,439.3 480.91,461.12 " fill="none" id="Actions-PlansToActions" style="stroke:#181818;stroke-width:1.0;"/><line style="stroke:#181818;stroke-width:1.0;" x1="480.5958" x2="474.6462" y1="461.2117" y2="469.2493"/><line style="stroke:#181818;stroke-width:1.0;" x1="480.5958" x2="471.2138" y1="461.2117" y2="457.7507"/><line style="stroke:#181818;stroke-width:1.0;" x1="480.5958" x2="472.93" y1="461.2117" y2="463.5"/><ellipse cx="486.3451" cy="459.4955" fill="none" rx="4" ry="4" style="stroke:#181818;stroke-width:1.0;"/><line style="stroke:#181818;stroke-width:1.0;" x1="439.8572" x2="441.7706" y1="257.3406" y2="249.5728"/><line style="stroke:#181818;stroke-width:1.0;" x1="442.7701" x2="444.6835" y1="258.0581" y2="250.2903"/><line style="stroke:#181818;stroke-width:1.0;" x1="444.6978" x2="436.93" y1="254.4134" y2="252.5"/></g><!--MD5=[e18010fcf580ed681e62f7a27c0a8c8c]
link AnimalsPacks to Locations--><g id="link_AnimalsPacks_Locations"><path codeLine="83" d="M1456.35,483.82 C1463.44,502.34 1352.72,592.57 1306.93,603.43 " fill="none" id="AnimalsPacks-Locations" style="stroke:#181818;stroke-width:1.0;"/><line style="stroke:#181818;stroke-width:1.0;" x1="1303.4236" x2="1302.3663" y1="607.9363" y2="600.0064"/><line style="stroke:#181818;stroke-width:1.0;" x1="1306.3973" x2="1305.3399" y1="607.5398" y2="599.6099"/><line style="stroke:#181818;stroke-width:1.0;" x1="1306.8598" x2="1298.93" y1="603.4427" y2="604.5"/><line style="stroke:#181818;stroke-width:1.0;" x1="1456.2304" x2="1446.4763" y1="483.7716" y2="485.9753"/><line style="stroke:#181818;stroke-width:1.0;" x1="1456.2304" x2="1451.3837" y1="483.7716" y2="475.0247"/><line style="stroke:#181818;stroke-width:1.0;" x1="1456.2304" x2="1448.93" y1="483.7716" y2="480.5"/><ellipse cx="1461.7058" cy="486.2253" fill="none" rx="4" ry="4" style="stroke:#181818;stroke-width:1.0;"/></g><!--MD5=[315313162e62166bb859cd57ee52664f]
@startuml Data Model

entity Humans {
    id SERIAL PRIMARY KEY
    - -
    name VARCHAR(30) NOT NULL
    FOREIGN KEY (animal_id) REFERENCES Animals (id) NOT NULL UNIQUE
    FOREIGN KEY (home_location_id) REFERENCES Locations (id)
}

entity AnimalsToPlans {
    FOREIGN KEY (plan_id) REFERENCES Plans (id)
    FOREIGN KEY (animal_id) REFERENCES Animals (id)
    - -
}


entity Animals {
    id SERIAL PRIMARY KEY
    - -
    FOREIGN KEY (species) REFERENCES Species (id) NOT NULL
    smartness INTEGER CHECK (smartness >= 0)
    FOREIGN KEY (current_location_id) REFERENCES Locations (id) NOT NULL
    FOREIGN KEY (animal_pack_id) REFERENCES AnimalsPacks (id)
}

entity PlansToActions {
    FOREIGN KEY (plan_id) REFERENCES Plans (id)
    FOREIGN KEY (action_id) REFERENCES Actions (id)
    - -
}

entity Species {
    id SERIAL PRIMARY KEY
    - -
    name VARCHAR(50) NOT NULL UNIQUE
}

entity Actions {
    id SERIAL PRIMARY KEY
    - -
    name VARCHAR(100) NOT NULL UNIQUE
    description TEXT NOT NULL
}

entity Plans {
    id SERIAL PRIMARY KEY
    - -
    start_time TIMESTAMP
    end_time TIMESTAMP
}

entity Locations {
    id SERIAL PRIMARY KEY
    - -
    name char(50) NOT NULL
    description TEXT NOT NULL
    placement POLYGON NOT NULL
}

entity AnimalsPacks {
    id SERIAL PRIMARY KEY
    - -
    FOREIGN KEY (leader_animal_id) REFERENCES Animal (id) NOT NULL UNIQUE
    FOREIGN KEY (habitat_location_id) REFERENCES Locations (id) NOT NULL
}


Humans::animal_id |o- -|| Animals::id
Humans::home_location_id }o- -o| Locations::id

Animals::species }o- -|| Species::id
Animals::current_location_id }o- -|| Locations::id
Animals::animal_pack_id }|- -o| AnimalsPacks::id

Animals::id ||- -o{ AnimalsToPlans::animal_id
Plans::id ||- -|{ AnimalsToPlans::plan_id

Plans::id ||- -|{ PlansToActions::plan_id
Actions::id ||- -o{ PlansToActions::action_id

AnimalsPacks::leader_animal_id ||- -|| Animals::id

AnimalsPacks::habitat_location_id }o- -|| Locations::id

@enduml

PlantUML version 1.2022.7(Mon Aug 22 20:01:30 MSK 2022)
(GPL source distribution)
Java Runtime: OpenJDK Runtime Environment
JVM: OpenJDK 64-Bit Server VM
Default Encoding: Cp1252
Language: en
Country: GB
--></g></svg>