<?xml version="1.0" encoding="UTF-8" standalone="no"?><svg xmlns="http://www.w3.org/2000/svg" xmlns:xlink="http://www.w3.org/1999/xlink" contentStyleType="text/css" height="597px" preserveAspectRatio="none" style="width:231px;height:597px;background:#FFFFFF;" version="1.1" viewBox="0 0 231 597" width="231px" zoomAndPan="magnify"><defs/><g><!--MD5=[2e69174041fa7eb3bebc5f460ee56291]
class Human--><g id="elem_Human"><rect codeLine="2" fill="#F1F1F1" height="100.8281" id="Human" rx="2.5" ry="2.5" style="stroke:#181818;stroke-width:0.5;" width="158" x="39.5" y="7"/><ellipse cx="92.25" cy="23" fill="#ADD1B2" rx="11" ry="11" style="stroke:#181818;stroke-width:1.0;"/><path d="M91.1094,23.7969 L91.1094,26.2969 L95.4375,26.2969 L95.4375,25.375 Q95.4375,24.7656 95.6719,24.5 Q95.9219,24.2344 96.2969,24.2344 Q96.6719,24.2344 96.9063,24.5 Q97.1406,24.7656 97.1406,25.375 L97.1406,28 L89.1406,28 Q88.5156,28 88.25,27.7656 Q88,27.5313 88,27.1406 Q88,26.7656 88.2656,26.5313 Q88.5313,26.2969 89.1406,26.2969 L89.4063,26.2969 L89.4063,19.6406 L89.1406,19.6406 Q88.5156,19.6406 88.25,19.4063 Q88,19.1719 88,18.7813 Q88,18.4063 88.25,18.1719 Q88.5156,17.9375 89.1406,17.9375 L96.7656,17.9375 L96.7656,20.5313 Q96.7656,21.1406 96.5313,21.4063 Q96.3125,21.6563 95.9219,21.6563 Q95.5469,21.6563 95.3125,21.4063 Q95.0781,21.1406 95.0781,20.5313 L95.0781,19.6406 L91.1094,19.6406 L91.1094,22.0938 L92.5938,22.0938 Q92.5938,21.4375 92.7188,21.25 Q92.9844,20.8438 93.4531,20.8438 Q93.8281,20.8438 94.0625,21.1094 Q94.2969,21.3594 94.2969,21.9688 L94.2969,23.9375 Q94.2969,24.4844 94.1719,24.6719 Q93.9063,25.0625 93.4531,25.0625 Q92.9844,25.0625 92.7188,24.6563 Q92.5938,24.4688 92.5938,23.7969 L91.1094,23.7969 Z " fill="#000000"/><text fill="#000000" font-family="sans-serif" font-size="14" lengthAdjust="spacing" textLength="44" x="112.75" y="28.7285">Human</text><line style="stroke:#181818;stroke-width:0.5;" x1="40.5" x2="196.5" y1="39" y2="39"/><text fill="#000000" font-family="sans-serif" font-size="14" lengthAdjust="spacing" textLength="59" x="45.5" y="57.5332">Human id</text><line style="stroke:#181818;stroke-width:1.0;" x1="40.5" x2="196.5" y1="64.6094" y2="64.6094"/><text fill="#000000" font-family="sans-serif" font-size="14" lengthAdjust="spacing" textLength="36" x="45.5" y="83.1426">Name</text><text fill="#000000" font-family="sans-serif" font-size="14" lengthAdjust="spacing" textLength="146" x="45.5" y="100.752">Animal instance id (FK)</text></g><!--MD5=[7fd4401f5c5cb0e3d029c879cad30c04]
class Animal--><g id="elem_Animal"><rect codeLine="9" fill="#F1F1F1" height="100.8281" id="Animal" rx="2.5" ry="2.5" style="stroke:#181818;stroke-width:0.5;" width="156" x="40.5" y="168"/><ellipse cx="93.25" cy="184" fill="#ADD1B2" rx="11" ry="11" style="stroke:#181818;stroke-width:1.0;"/><path d="M92.1094,184.7969 L92.1094,187.2969 L96.4375,187.2969 L96.4375,186.375 Q96.4375,185.7656 96.6719,185.5 Q96.9219,185.2344 97.2969,185.2344 Q97.6719,185.2344 97.9063,185.5 Q98.1406,185.7656 98.1406,186.375 L98.1406,189 L90.1406,189 Q89.5156,189 89.25,188.7656 Q89,188.5313 89,188.1406 Q89,187.7656 89.2656,187.5313 Q89.5313,187.2969 90.1406,187.2969 L90.4063,187.2969 L90.4063,180.6406 L90.1406,180.6406 Q89.5156,180.6406 89.25,180.4063 Q89,180.1719 89,179.7813 Q89,179.4063 89.25,179.1719 Q89.5156,178.9375 90.1406,178.9375 L97.7656,178.9375 L97.7656,181.5313 Q97.7656,182.1406 97.5313,182.4063 Q97.3125,182.6563 96.9219,182.6563 Q96.5469,182.6563 96.3125,182.4063 Q96.0781,182.1406 96.0781,181.5313 L96.0781,180.6406 L92.1094,180.6406 L92.1094,183.0938 L93.5938,183.0938 Q93.5938,182.4375 93.7188,182.25 Q93.9844,181.8438 94.4531,181.8438 Q94.8281,181.8438 95.0625,182.1094 Q95.2969,182.3594 95.2969,182.9688 L95.2969,184.9375 Q95.2969,185.4844 95.1719,185.6719 Q94.9063,186.0625 94.4531,186.0625 Q93.9844,186.0625 93.7188,185.6563 Q93.5938,185.4688 93.5938,184.7969 L92.1094,184.7969 Z " fill="#000000"/><text fill="#000000" font-family="sans-serif" font-size="14" lengthAdjust="spacing" textLength="42" x="113.75" y="189.7285">Animal</text><line style="stroke:#181818;stroke-width:0.5;" x1="41.5" x2="195.5" y1="200" y2="200"/><text fill="#000000" font-family="sans-serif" font-size="14" lengthAdjust="spacing" textLength="57" x="46.5" y="218.5332">Animal id</text><line style="stroke:#181818;stroke-width:1.0;" x1="41.5" x2="195.5" y1="225.6094" y2="225.6094"/><text fill="#000000" font-family="sans-serif" font-size="14" lengthAdjust="spacing" textLength="144" x="46.5" y="244.1426">Biological species (FK)</text><text fill="#000000" font-family="sans-serif" font-size="14" lengthAdjust="spacing" textLength="67" x="46.5" y="261.752">Smartness</text></g><!--MD5=[4b1bbb36bf22db452d2f18c9a96e40ec]
class Species--><g id="elem_Species"><rect codeLine="16" fill="#F1F1F1" height="83.2188" id="Species" rx="2.5" ry="2.5" style="stroke:#181818;stroke-width:0.5;" width="101" x="7" y="338"/><ellipse cx="30.55" cy="354" fill="#ADD1B2" rx="11" ry="11" style="stroke:#181818;stroke-width:1.0;"/><path d="M29.4094,354.7969 L29.4094,357.2969 L33.7375,357.2969 L33.7375,356.375 Q33.7375,355.7656 33.9719,355.5 Q34.2219,355.2344 34.5969,355.2344 Q34.9719,355.2344 35.2063,355.5 Q35.4406,355.7656 35.4406,356.375 L35.4406,359 L27.4406,359 Q26.8156,359 26.55,358.7656 Q26.3,358.5313 26.3,358.1406 Q26.3,357.7656 26.5656,357.5313 Q26.8313,357.2969 27.4406,357.2969 L27.7063,357.2969 L27.7063,350.6406 L27.4406,350.6406 Q26.8156,350.6406 26.55,350.4063 Q26.3,350.1719 26.3,349.7813 Q26.3,349.4063 26.55,349.1719 Q26.8156,348.9375 27.4406,348.9375 L35.0656,348.9375 L35.0656,351.5313 Q35.0656,352.1406 34.8313,352.4063 Q34.6125,352.6563 34.2219,352.6563 Q33.8469,352.6563 33.6125,352.4063 Q33.3781,352.1406 33.3781,351.5313 L33.3781,350.6406 L29.4094,350.6406 L29.4094,353.0938 L30.8938,353.0938 Q30.8938,352.4375 31.0188,352.25 Q31.2844,351.8438 31.7531,351.8438 Q32.1281,351.8438 32.3625,352.1094 Q32.5969,352.3594 32.5969,352.9688 L32.5969,354.9375 Q32.5969,355.4844 32.4719,355.6719 Q32.2063,356.0625 31.7531,356.0625 Q31.2844,356.0625 31.0188,355.6563 Q30.8938,355.4688 30.8938,354.7969 L29.4094,354.7969 Z " fill="#000000"/><text fill="#000000" font-family="sans-serif" font-size="14" lengthAdjust="spacing" textLength="50" x="46.45" y="359.7285">Species</text><line style="stroke:#181818;stroke-width:0.5;" x1="8" x2="107" y1="370" y2="370"/><text fill="#000000" font-family="sans-serif" font-size="14" lengthAdjust="spacing" textLength="65" x="13" y="388.5332">Species id</text><line style="stroke:#181818;stroke-width:1.0;" x1="8" x2="107" y1="395.6094" y2="395.6094"/><text fill="#000000" font-family="sans-serif" font-size="14" lengthAdjust="spacing" textLength="89" x="13" y="414.1426">Species name</text></g><!--MD5=[f8e7078f77c005d15b486c0c98deb1e6]
class Action--><g id="elem_Action"><rect codeLine="22" fill="#F1F1F1" height="100.8281" id="Action" rx="2.5" ry="2.5" style="stroke:#181818;stroke-width:0.5;" width="90" x="134.5" y="490"/><ellipse cx="158.05" cy="506" fill="#ADD1B2" rx="11" ry="11" style="stroke:#181818;stroke-width:1.0;"/><path d="M156.9094,506.7969 L156.9094,509.2969 L161.2375,509.2969 L161.2375,508.375 Q161.2375,507.7656 161.4719,507.5 Q161.7219,507.2344 162.0969,507.2344 Q162.4719,507.2344 162.7063,507.5 Q162.9406,507.7656 162.9406,508.375 L162.9406,511 L154.9406,511 Q154.3156,511 154.05,510.7656 Q153.8,510.5313 153.8,510.1406 Q153.8,509.7656 154.0656,509.5313 Q154.3313,509.2969 154.9406,509.2969 L155.2063,509.2969 L155.2063,502.6406 L154.9406,502.6406 Q154.3156,502.6406 154.05,502.4063 Q153.8,502.1719 153.8,501.7813 Q153.8,501.4063 154.05,501.1719 Q154.3156,500.9375 154.9406,500.9375 L162.5656,500.9375 L162.5656,503.5313 Q162.5656,504.1406 162.3313,504.4063 Q162.1125,504.6563 161.7219,504.6563 Q161.3469,504.6563 161.1125,504.4063 Q160.8781,504.1406 160.8781,503.5313 L160.8781,502.6406 L156.9094,502.6406 L156.9094,505.0938 L158.3938,505.0938 Q158.3938,504.4375 158.5188,504.25 Q158.7844,503.8438 159.2531,503.8438 Q159.6281,503.8438 159.8625,504.1094 Q160.0969,504.3594 160.0969,504.9688 L160.0969,506.9375 Q160.0969,507.4844 159.9719,507.6719 Q159.7063,508.0625 159.2531,508.0625 Q158.7844,508.0625 158.5188,507.6563 Q158.3938,507.4688 158.3938,506.7969 L156.9094,506.7969 Z " fill="#000000"/><text fill="#000000" font-family="sans-serif" font-size="14" lengthAdjust="spacing" textLength="39" x="173.95" y="511.7285">Action</text><line style="stroke:#181818;stroke-width:0.5;" x1="135.5" x2="223.5" y1="522" y2="522"/><text fill="#000000" font-family="sans-serif" font-size="14" lengthAdjust="spacing" textLength="54" x="140.5" y="540.5332">Action id</text><line style="stroke:#181818;stroke-width:1.0;" x1="135.5" x2="223.5" y1="547.6094" y2="547.6094"/><text fill="#000000" font-family="sans-serif" font-size="14" lengthAdjust="spacing" textLength="78" x="140.5" y="566.1426">Action name</text><text fill="#000000" font-family="sans-serif" font-size="14" lengthAdjust="spacing" textLength="71" x="140.5" y="583.752">Description</text></g><!--MD5=[b3be63f686ea56a43222251ea576b753]
class Plan--><g id="elem_Plan"><rect codeLine="29" fill="#F1F1F1" height="100.8281" id="Plan" rx="2.5" ry="2.5" style="stroke:#181818;stroke-width:0.5;" width="72" x="143.5" y="329"/><ellipse cx="163.9" cy="345" fill="#ADD1B2" rx="11" ry="11" style="stroke:#181818;stroke-width:1.0;"/><path d="M162.7594,345.7969 L162.7594,348.2969 L167.0875,348.2969 L167.0875,347.375 Q167.0875,346.7656 167.3219,346.5 Q167.5719,346.2344 167.9469,346.2344 Q168.3219,346.2344 168.5563,346.5 Q168.7906,346.7656 168.7906,347.375 L168.7906,350 L160.7906,350 Q160.1656,350 159.9,349.7656 Q159.65,349.5313 159.65,349.1406 Q159.65,348.7656 159.9156,348.5313 Q160.1813,348.2969 160.7906,348.2969 L161.0563,348.2969 L161.0563,341.6406 L160.7906,341.6406 Q160.1656,341.6406 159.9,341.4063 Q159.65,341.1719 159.65,340.7813 Q159.65,340.4063 159.9,340.1719 Q160.1656,339.9375 160.7906,339.9375 L168.4156,339.9375 L168.4156,342.5313 Q168.4156,343.1406 168.1813,343.4063 Q167.9625,343.6563 167.5719,343.6563 Q167.1969,343.6563 166.9625,343.4063 Q166.7281,343.1406 166.7281,342.5313 L166.7281,341.6406 L162.7594,341.6406 L162.7594,344.0938 L164.2438,344.0938 Q164.2438,343.4375 164.3688,343.25 Q164.6344,342.8438 165.1031,342.8438 Q165.4781,342.8438 165.7125,343.1094 Q165.9469,343.3594 165.9469,343.9688 L165.9469,345.9375 Q165.9469,346.4844 165.8219,346.6719 Q165.5563,347.0625 165.1031,347.0625 Q164.6344,347.0625 164.3688,346.6563 Q164.2438,346.4688 164.2438,345.7969 L162.7594,345.7969 Z " fill="#000000"/><text fill="#000000" font-family="sans-serif" font-size="14" lengthAdjust="spacing" textLength="28" x="179.1" y="350.7285">Plan</text><line style="stroke:#181818;stroke-width:0.5;" x1="144.5" x2="214.5" y1="361" y2="361"/><text fill="#000000" font-family="sans-serif" font-size="14" lengthAdjust="spacing" textLength="43" x="149.5" y="379.5332">Plan id</text><line style="stroke:#181818;stroke-width:1.0;" x1="144.5" x2="214.5" y1="386.6094" y2="386.6094"/><text fill="#000000" font-family="sans-serif" font-size="14" lengthAdjust="spacing" textLength="60" x="149.5" y="405.1426">Start time</text><text fill="#000000" font-family="sans-serif" font-size="14" lengthAdjust="spacing" textLength="55" x="149.5" y="422.752">End time</text></g><!--MD5=[0be0d06350c1c50a47ba13b681c65684]
link Human to Animal--><g id="link_Human_Animal"><path codeLine="37" d="M118.5,116.5 C118.5,130.57 118.5,145.6 118.5,159.66 " fill="none" id="Human-Animal" style="stroke:#181818;stroke-width:1.0;"/><line style="stroke:#181818;stroke-width:1.0;" x1="122.5" x2="114.5" y1="163.8" y2="163.8"/><line style="stroke:#181818;stroke-width:1.0;" x1="122.5" x2="114.5" y1="160.8" y2="160.8"/><line style="stroke:#181818;stroke-width:1.0;" x1="118.5" x2="118.5" y1="159.8" y2="167.8"/><line style="stroke:#181818;stroke-width:1.0;" x1="118.5" x2="118.5" y1="119.37" y2="108.37"/><ellipse cx="118.5" cy="119.37" fill="none" rx="4" ry="4" style="stroke:#181818;stroke-width:1.0;"/><line style="stroke:#181818;stroke-width:1.0;" x1="114.5" x2="122.5" y1="112.37" y2="112.37"/></g><!--MD5=[985b6ccc91103fc9791479b0a224b09b]
link Animal to Species--><g id="link_Animal_Species"><path codeLine="39" d="M96.45,276.99 C89.74,294.47 82.44,313.5 75.99,330.3 " fill="none" id="Animal-Species" style="stroke:#181818;stroke-width:1.0;"/><line style="stroke:#181818;stroke-width:1.0;" x1="78.2602" x2="70.7945" y1="335.5545" y2="332.6798"/><line style="stroke:#181818;stroke-width:1.0;" x1="79.3382" x2="71.8725" y1="332.7549" y2="329.8802"/><line style="stroke:#181818;stroke-width:1.0;" x1="75.9647" x2="73.09" y1="330.3843" y2="337.85"/><line style="stroke:#181818;stroke-width:1.0;" x1="96.5125" x2="93.7658" y1="276.8423" y2="267.2269"/><line style="stroke:#181818;stroke-width:1.0;" x1="96.5125" x2="104.9742" y1="276.8423" y2="271.5131"/><line style="stroke:#181818;stroke-width:1.0;" x1="96.5125" x2="99.37" y1="276.8423" y2="269.37"/><ellipse cx="94.3694" cy="282.4465" fill="none" rx="4" ry="4" style="stroke:#181818;stroke-width:1.0;"/></g><!--MD5=[f5a80851c9a4311104f3507ab2e9f740]
link Animal to Plan--><g id="link_Animal_Plan"><path codeLine="41" d="M140.58,277.05 C146.06,291.35 151.95,306.68 157.43,320.98 " fill="none" id="Animal-Plan" style="stroke:#181818;stroke-width:1.0;"/><line style="stroke:#181818;stroke-width:1.0;" x1="157.5601" x2="166.0306" y1="321.3325" y2="326.6476"/><line style="stroke:#181818;stroke-width:1.0;" x1="157.5601" x2="154.8294" y1="321.3325" y2="330.9524"/><line style="stroke:#181818;stroke-width:1.0;" x1="157.5601" x2="160.43" y1="321.3325" y2="328.8"/><ellipse cx="155.4076" cy="315.7319" fill="none" rx="4" ry="4" style="stroke:#181818;stroke-width:1.0;"/><line style="stroke:#181818;stroke-width:1.0;" x1="140.4875" x2="132.0258" y1="276.8423" y2="271.5131"/><line style="stroke:#181818;stroke-width:1.0;" x1="140.4875" x2="143.2342" y1="276.8423" y2="267.2269"/><line style="stroke:#181818;stroke-width:1.0;" x1="140.4875" x2="137.63" y1="276.8423" y2="269.37"/><line style="stroke:#181818;stroke-width:1.0;" x1="137.4657" x2="144.938" y1="280.1391" y2="277.2816"/></g><!--MD5=[7283745905e7ff70ae4c8333a4a6e978]
link Plan to Action--><g id="link_Plan_Action"><path codeLine="43" d="M179.5,438.5 C179.5,452.57 179.5,467.6 179.5,481.66 " fill="none" id="Plan-Action" style="stroke:#181818;stroke-width:1.0;"/><line style="stroke:#181818;stroke-width:1.0;" x1="179.5" x2="185.5" y1="481.8" y2="489.8"/><line style="stroke:#181818;stroke-width:1.0;" x1="179.5" x2="173.5" y1="481.8" y2="489.8"/><line style="stroke:#181818;stroke-width:1.0;" x1="179.5" x2="179.5" y1="481.8" y2="489.8"/><line style="stroke:#181818;stroke-width:1.0;" x1="183.5" x2="175.5" y1="479.8" y2="479.8"/><line style="stroke:#181818;stroke-width:1.0;" x1="179.5" x2="173.5" y1="438.37" y2="430.37"/><line style="stroke:#181818;stroke-width:1.0;" x1="179.5" x2="185.5" y1="438.37" y2="430.37"/><line style="stroke:#181818;stroke-width:1.0;" x1="179.5" x2="179.5" y1="438.37" y2="430.37"/><ellipse cx="179.5" cy="444.37" fill="none" rx="4" ry="4" style="stroke:#181818;stroke-width:1.0;"/></g><!--MD5=[9d1d83959c1f84ada54c005ceefbe7be]
@startuml Entity Relationship Model

entity Human {
    Human id
    - -
    Name
    Animal instance id (FK)
}

entity Animal {
    Animal id
    - -
    Biological species (FK)
    Smartness
}

entity Species {
    Species id
    - -
    Species name
}

entity Action {
    Action id
    - -
    Action name
    Description
}

entity Plan {
    Plan id
    - -
    Start time
    End time
}


Human |o- -|| Animal

Animal }o- -|| Species

Animal }|- -o{ Plan

Plan }o- -|{ Action

@enduml

PlantUML version 1.2022.7(Mon Aug 22 20:01:30 MSK 2022)
(GPL source distribution)
Java Runtime: OpenJDK Runtime Environment
JVM: OpenJDK 64-Bit Server VM
Default Encoding: Cp1252
Language: en
Country: GB
--></g></svg>