<?xml version="1.0" encoding="UTF-8" standalone="no"?><svg xmlns="http://www.w3.org/2000/svg" xmlns:xlink="http://www.w3.org/1999/xlink" contentStyleType="text/css" height="649px" preserveAspectRatio="none" style="width:542px;height:649px;background:#FFFFFF;" version="1.1" viewBox="0 0 542 649" width="542px" zoomAndPan="magnify"><defs/><g><!--MD5=[2e69174041fa7eb3bebc5f460ee56291]
class Human--><g id="elem_Human"><rect codeLine="2" fill="#F1F1F1" height="118.4375" id="Human" rx="2.5" ry="2.5" style="stroke:#181818;stroke-width:0.5;" width="158" x="320.5" y="7"/><ellipse cx="373.25" cy="23" fill="#ADD1B2" rx="11" ry="11" style="stroke:#181818;stroke-width:1.0;"/><path d="M372.1094,23.7969 L372.1094,26.2969 L376.4375,26.2969 L376.4375,25.375 Q376.4375,24.7656 376.6719,24.5 Q376.9219,24.2344 377.2969,24.2344 Q377.6719,24.2344 377.9063,24.5 Q378.1406,24.7656 378.1406,25.375 L378.1406,28 L370.1406,28 Q369.5156,28 369.25,27.7656 Q369,27.5313 369,27.1406 Q369,26.7656 369.2656,26.5313 Q369.5313,26.2969 370.1406,26.2969 L370.4063,26.2969 L370.4063,19.6406 L370.1406,19.6406 Q369.5156,19.6406 369.25,19.4063 Q369,19.1719 369,18.7813 Q369,18.4063 369.25,18.1719 Q369.5156,17.9375 370.1406,17.9375 L377.7656,17.9375 L377.7656,20.5313 Q377.7656,21.1406 377.5313,21.4063 Q377.3125,21.6563 376.9219,21.6563 Q376.5469,21.6563 376.3125,21.4063 Q376.0781,21.1406 376.0781,20.5313 L376.0781,19.6406 L372.1094,19.6406 L372.1094,22.0938 L373.5938,22.0938 Q373.5938,21.4375 373.7188,21.25 Q373.9844,20.8438 374.4531,20.8438 Q374.8281,20.8438 375.0625,21.1094 Q375.2969,21.3594 375.2969,21.9688 L375.2969,23.9375 Q375.2969,24.4844 375.1719,24.6719 Q374.9063,25.0625 374.4531,25.0625 Q373.9844,25.0625 373.7188,24.6563 Q373.5938,24.4688 373.5938,23.7969 L372.1094,23.7969 Z " fill="#000000"/><text fill="#000000" font-family="sans-serif" font-size="14" lengthAdjust="spacing" textLength="44" x="393.75" y="28.7285">Human</text><line style="stroke:#181818;stroke-width:0.5;" x1="321.5" x2="477.5" y1="39" y2="39"/><text fill="#000000" font-family="sans-serif" font-size="14" lengthAdjust="spacing" textLength="59" x="326.5" y="57.5332">Human id</text><line style="stroke:#181818;stroke-width:1.0;" x1="321.5" x2="477.5" y1="64.6094" y2="64.6094"/><text fill="#000000" font-family="sans-serif" font-size="14" lengthAdjust="spacing" textLength="36" x="326.5" y="83.1426">Name</text><text fill="#000000" font-family="sans-serif" font-size="14" lengthAdjust="spacing" textLength="146" x="326.5" y="100.752">Animal instance id (FK)</text><text fill="#000000" font-family="sans-serif" font-size="14" lengthAdjust="spacing" textLength="136" x="326.5" y="118.3613">Home location id (KF)</text></g><!--MD5=[7fd4401f5c5cb0e3d029c879cad30c04]
class Animal--><g id="elem_Animal"><rect codeLine="10" fill="#F1F1F1" height="118.4375" id="Animal" rx="2.5" ry="2.5" style="stroke:#181818;stroke-width:0.5;" width="160" x="253.5" y="185"/><ellipse cx="308.25" cy="201" fill="#ADD1B2" rx="11" ry="11" style="stroke:#181818;stroke-width:1.0;"/><path d="M307.1094,201.7969 L307.1094,204.2969 L311.4375,204.2969 L311.4375,203.375 Q311.4375,202.7656 311.6719,202.5 Q311.9219,202.2344 312.2969,202.2344 Q312.6719,202.2344 312.9063,202.5 Q313.1406,202.7656 313.1406,203.375 L313.1406,206 L305.1406,206 Q304.5156,206 304.25,205.7656 Q304,205.5313 304,205.1406 Q304,204.7656 304.2656,204.5313 Q304.5313,204.2969 305.1406,204.2969 L305.4063,204.2969 L305.4063,197.6406 L305.1406,197.6406 Q304.5156,197.6406 304.25,197.4063 Q304,197.1719 304,196.7813 Q304,196.4063 304.25,196.1719 Q304.5156,195.9375 305.1406,195.9375 L312.7656,195.9375 L312.7656,198.5313 Q312.7656,199.1406 312.5313,199.4063 Q312.3125,199.6563 311.9219,199.6563 Q311.5469,199.6563 311.3125,199.4063 Q311.0781,199.1406 311.0781,198.5313 L311.0781,197.6406 L307.1094,197.6406 L307.1094,200.0938 L308.5938,200.0938 Q308.5938,199.4375 308.7188,199.25 Q308.9844,198.8438 309.4531,198.8438 Q309.8281,198.8438 310.0625,199.1094 Q310.2969,199.3594 310.2969,199.9688 L310.2969,201.9375 Q310.2969,202.4844 310.1719,202.6719 Q309.9063,203.0625 309.4531,203.0625 Q308.9844,203.0625 308.7188,202.6563 Q308.5938,202.4688 308.5938,201.7969 L307.1094,201.7969 Z " fill="#000000"/><text fill="#000000" font-family="sans-serif" font-size="14" lengthAdjust="spacing" textLength="42" x="328.75" y="206.7285">Animal</text><line style="stroke:#181818;stroke-width:0.5;" x1="254.5" x2="412.5" y1="217" y2="217"/><text fill="#000000" font-family="sans-serif" font-size="14" lengthAdjust="spacing" textLength="57" x="259.5" y="235.5332">Animal id</text><line style="stroke:#181818;stroke-width:1.0;" x1="254.5" x2="412.5" y1="242.6094" y2="242.6094"/><text fill="#000000" font-family="sans-serif" font-size="14" lengthAdjust="spacing" textLength="144" x="259.5" y="261.1426">Biological species (FK)</text><text fill="#000000" font-family="sans-serif" font-size="14" lengthAdjust="spacing" textLength="67" x="259.5" y="278.752">Smartness</text><text fill="#000000" font-family="sans-serif" font-size="14" lengthAdjust="spacing" textLength="148" x="259.5" y="296.3613">Current location id (FK)</text></g><!--MD5=[4b1bbb36bf22db452d2f18c9a96e40ec]
class Species--><g id="elem_Species"><rect codeLine="18" fill="#F1F1F1" height="83.2188" id="Species" rx="2.5" ry="2.5" style="stroke:#181818;stroke-width:0.5;" width="101" x="7" y="372"/><ellipse cx="30.55" cy="388" fill="#ADD1B2" rx="11" ry="11" style="stroke:#181818;stroke-width:1.0;"/><path d="M29.4094,388.7969 L29.4094,391.2969 L33.7375,391.2969 L33.7375,390.375 Q33.7375,389.7656 33.9719,389.5 Q34.2219,389.2344 34.5969,389.2344 Q34.9719,389.2344 35.2063,389.5 Q35.4406,389.7656 35.4406,390.375 L35.4406,393 L27.4406,393 Q26.8156,393 26.55,392.7656 Q26.3,392.5313 26.3,392.1406 Q26.3,391.7656 26.5656,391.5313 Q26.8313,391.2969 27.4406,391.2969 L27.7063,391.2969 L27.7063,384.6406 L27.4406,384.6406 Q26.8156,384.6406 26.55,384.4063 Q26.3,384.1719 26.3,383.7813 Q26.3,383.4063 26.55,383.1719 Q26.8156,382.9375 27.4406,382.9375 L35.0656,382.9375 L35.0656,385.5313 Q35.0656,386.1406 34.8313,386.4063 Q34.6125,386.6563 34.2219,386.6563 Q33.8469,386.6563 33.6125,386.4063 Q33.3781,386.1406 33.3781,385.5313 L33.3781,384.6406 L29.4094,384.6406 L29.4094,387.0938 L30.8938,387.0938 Q30.8938,386.4375 31.0188,386.25 Q31.2844,385.8438 31.7531,385.8438 Q32.1281,385.8438 32.3625,386.1094 Q32.5969,386.3594 32.5969,386.9688 L32.5969,388.9375 Q32.5969,389.4844 32.4719,389.6719 Q32.2063,390.0625 31.7531,390.0625 Q31.2844,390.0625 31.0188,389.6563 Q30.8938,389.4688 30.8938,388.7969 L29.4094,388.7969 Z " fill="#000000"/><text fill="#000000" font-family="sans-serif" font-size="14" lengthAdjust="spacing" textLength="50" x="46.45" y="393.7285">Species</text><line style="stroke:#181818;stroke-width:0.5;" x1="8" x2="107" y1="404" y2="404"/><text fill="#000000" font-family="sans-serif" font-size="14" lengthAdjust="spacing" textLength="65" x="13" y="422.5332">Species id</text><line style="stroke:#181818;stroke-width:1.0;" x1="8" x2="107" y1="429.6094" y2="429.6094"/><text fill="#000000" font-family="sans-serif" font-size="14" lengthAdjust="spacing" textLength="89" x="13" y="448.1426">Species name</text></g><!--MD5=[f8e7078f77c005d15b486c0c98deb1e6]
class Action--><g id="elem_Action"><rect codeLine="24" fill="#F1F1F1" height="100.8281" id="Action" rx="2.5" ry="2.5" style="stroke:#181818;stroke-width:0.5;" width="90" x="134.5" y="532.5"/><ellipse cx="158.05" cy="548.5" fill="#ADD1B2" rx="11" ry="11" style="stroke:#181818;stroke-width:1.0;"/><path d="M156.9094,549.2969 L156.9094,551.7969 L161.2375,551.7969 L161.2375,550.875 Q161.2375,550.2656 161.4719,550 Q161.7219,549.7344 162.0969,549.7344 Q162.4719,549.7344 162.7063,550 Q162.9406,550.2656 162.9406,550.875 L162.9406,553.5 L154.9406,553.5 Q154.3156,553.5 154.05,553.2656 Q153.8,553.0313 153.8,552.6406 Q153.8,552.2656 154.0656,552.0313 Q154.3313,551.7969 154.9406,551.7969 L155.2063,551.7969 L155.2063,545.1406 L154.9406,545.1406 Q154.3156,545.1406 154.05,544.9063 Q153.8,544.6719 153.8,544.2813 Q153.8,543.9063 154.05,543.6719 Q154.3156,543.4375 154.9406,543.4375 L162.5656,543.4375 L162.5656,546.0313 Q162.5656,546.6406 162.3313,546.9063 Q162.1125,547.1563 161.7219,547.1563 Q161.3469,547.1563 161.1125,546.9063 Q160.8781,546.6406 160.8781,546.0313 L160.8781,545.1406 L156.9094,545.1406 L156.9094,547.5938 L158.3938,547.5938 Q158.3938,546.9375 158.5188,546.75 Q158.7844,546.3438 159.2531,546.3438 Q159.6281,546.3438 159.8625,546.6094 Q160.0969,546.8594 160.0969,547.4688 L160.0969,549.4375 Q160.0969,549.9844 159.9719,550.1719 Q159.7063,550.5625 159.2531,550.5625 Q158.7844,550.5625 158.5188,550.1563 Q158.3938,549.9688 158.3938,549.2969 L156.9094,549.2969 Z " fill="#000000"/><text fill="#000000" font-family="sans-serif" font-size="14" lengthAdjust="spacing" textLength="39" x="173.95" y="554.2285">Action</text><line style="stroke:#181818;stroke-width:0.5;" x1="135.5" x2="223.5" y1="564.5" y2="564.5"/><text fill="#000000" font-family="sans-serif" font-size="14" lengthAdjust="spacing" textLength="54" x="140.5" y="583.0332">Action id</text><line style="stroke:#181818;stroke-width:1.0;" x1="135.5" x2="223.5" y1="590.1094" y2="590.1094"/><text fill="#000000" font-family="sans-serif" font-size="14" lengthAdjust="spacing" textLength="78" x="140.5" y="608.6426">Action name</text><text fill="#000000" font-family="sans-serif" font-size="14" lengthAdjust="spacing" textLength="71" x="140.5" y="626.252">Description</text></g><!--MD5=[b3be63f686ea56a43222251ea576b753]
class Plan--><g id="elem_Plan"><rect codeLine="31" fill="#F1F1F1" height="100.8281" id="Plan" rx="2.5" ry="2.5" style="stroke:#181818;stroke-width:0.5;" width="72" x="143.5" y="363"/><ellipse cx="163.9" cy="379" fill="#ADD1B2" rx="11" ry="11" style="stroke:#181818;stroke-width:1.0;"/><path d="M162.7594,379.7969 L162.7594,382.2969 L167.0875,382.2969 L167.0875,381.375 Q167.0875,380.7656 167.3219,380.5 Q167.5719,380.2344 167.9469,380.2344 Q168.3219,380.2344 168.5563,380.5 Q168.7906,380.7656 168.7906,381.375 L168.7906,384 L160.7906,384 Q160.1656,384 159.9,383.7656 Q159.65,383.5313 159.65,383.1406 Q159.65,382.7656 159.9156,382.5313 Q160.1813,382.2969 160.7906,382.2969 L161.0563,382.2969 L161.0563,375.6406 L160.7906,375.6406 Q160.1656,375.6406 159.9,375.4063 Q159.65,375.1719 159.65,374.7813 Q159.65,374.4063 159.9,374.1719 Q160.1656,373.9375 160.7906,373.9375 L168.4156,373.9375 L168.4156,376.5313 Q168.4156,377.1406 168.1813,377.4063 Q167.9625,377.6563 167.5719,377.6563 Q167.1969,377.6563 166.9625,377.4063 Q166.7281,377.1406 166.7281,376.5313 L166.7281,375.6406 L162.7594,375.6406 L162.7594,378.0938 L164.2438,378.0938 Q164.2438,377.4375 164.3688,377.25 Q164.6344,376.8438 165.1031,376.8438 Q165.4781,376.8438 165.7125,377.1094 Q165.9469,377.3594 165.9469,377.9688 L165.9469,379.9375 Q165.9469,380.4844 165.8219,380.6719 Q165.5563,381.0625 165.1031,381.0625 Q164.6344,381.0625 164.3688,380.6563 Q164.2438,380.4688 164.2438,379.7969 L162.7594,379.7969 Z " fill="#000000"/><text fill="#000000" font-family="sans-serif" font-size="14" lengthAdjust="spacing" textLength="28" x="179.1" y="384.7285">Plan</text><line style="stroke:#181818;stroke-width:0.5;" x1="144.5" x2="214.5" y1="395" y2="395"/><text fill="#000000" font-family="sans-serif" font-size="14" lengthAdjust="spacing" textLength="43" x="149.5" y="413.5332">Plan id</text><line style="stroke:#181818;stroke-width:1.0;" x1="144.5" x2="214.5" y1="420.6094" y2="420.6094"/><text fill="#000000" font-family="sans-serif" font-size="14" lengthAdjust="spacing" textLength="60" x="149.5" y="439.1426">Start time</text><text fill="#000000" font-family="sans-serif" font-size="14" lengthAdjust="spacing" textLength="55" x="149.5" y="456.752">End time</text></g><!--MD5=[4f1f3706c1a355a8488e154afcaed5df]
class Location--><g id="elem_Location"><rect codeLine="38" fill="#F1F1F1" height="118.4375" id="Location" rx="2.5" ry="2.5" style="stroke:#181818;stroke-width:0.5;" width="86" x="356.5" y="524"/><ellipse cx="371.5" cy="540" fill="#ADD1B2" rx="11" ry="11" style="stroke:#181818;stroke-width:1.0;"/><path d="M370.3594,540.7969 L370.3594,543.2969 L374.6875,543.2969 L374.6875,542.375 Q374.6875,541.7656 374.9219,541.5 Q375.1719,541.2344 375.5469,541.2344 Q375.9219,541.2344 376.1563,541.5 Q376.3906,541.7656 376.3906,542.375 L376.3906,545 L368.3906,545 Q367.7656,545 367.5,544.7656 Q367.25,544.5313 367.25,544.1406 Q367.25,543.7656 367.5156,543.5313 Q367.7813,543.2969 368.3906,543.2969 L368.6563,543.2969 L368.6563,536.6406 L368.3906,536.6406 Q367.7656,536.6406 367.5,536.4063 Q367.25,536.1719 367.25,535.7813 Q367.25,535.4063 367.5,535.1719 Q367.7656,534.9375 368.3906,534.9375 L376.0156,534.9375 L376.0156,537.5313 Q376.0156,538.1406 375.7813,538.4063 Q375.5625,538.6563 375.1719,538.6563 Q374.7969,538.6563 374.5625,538.4063 Q374.3281,538.1406 374.3281,537.5313 L374.3281,536.6406 L370.3594,536.6406 L370.3594,539.0938 L371.8438,539.0938 Q371.8438,538.4375 371.9688,538.25 Q372.2344,537.8438 372.7031,537.8438 Q373.0781,537.8438 373.3125,538.1094 Q373.5469,538.3594 373.5469,538.9688 L373.5469,540.9375 Q373.5469,541.4844 373.4219,541.6719 Q373.1563,542.0625 372.7031,542.0625 Q372.2344,542.0625 371.9688,541.6563 Q371.8438,541.4688 371.8438,540.7969 L370.3594,540.7969 Z " fill="#000000"/><text fill="#000000" font-family="sans-serif" font-size="14" lengthAdjust="spacing" textLength="54" x="385.5" y="545.7285">Location</text><line style="stroke:#181818;stroke-width:0.5;" x1="357.5" x2="441.5" y1="556" y2="556"/><text fill="#000000" font-family="sans-serif" font-size="14" lengthAdjust="spacing" textLength="69" x="362.5" y="574.5332">Location id</text><line style="stroke:#181818;stroke-width:1.0;" x1="357.5" x2="441.5" y1="581.6094" y2="581.6094"/><text fill="#000000" font-family="sans-serif" font-size="14" lengthAdjust="spacing" textLength="36" x="362.5" y="600.1426">Name</text><text fill="#000000" font-family="sans-serif" font-size="14" lengthAdjust="spacing" textLength="71" x="362.5" y="617.752">Description</text><text fill="#000000" font-family="sans-serif" font-size="14" lengthAdjust="spacing" textLength="66" x="362.5" y="635.3613">Placement</text></g><!--MD5=[490897fb41dc3032b1f00c3cb1aeed84]
class AnimalsPack--><g id="elem_AnimalsPack"><rect codeLine="46" fill="#F1F1F1" height="100.8281" id="AnimalsPack" rx="2.5" ry="2.5" style="stroke:#181818;stroke-width:0.5;" width="156" x="321.5" y="363"/><ellipse cx="356.3" cy="379" fill="#ADD1B2" rx="11" ry="11" style="stroke:#181818;stroke-width:1.0;"/><path d="M355.1594,379.7969 L355.1594,382.2969 L359.4875,382.2969 L359.4875,381.375 Q359.4875,380.7656 359.7219,380.5 Q359.9719,380.2344 360.3469,380.2344 Q360.7219,380.2344 360.9563,380.5 Q361.1906,380.7656 361.1906,381.375 L361.1906,384 L353.1906,384 Q352.5656,384 352.3,383.7656 Q352.05,383.5313 352.05,383.1406 Q352.05,382.7656 352.3156,382.5313 Q352.5813,382.2969 353.1906,382.2969 L353.4563,382.2969 L353.4563,375.6406 L353.1906,375.6406 Q352.5656,375.6406 352.3,375.4063 Q352.05,375.1719 352.05,374.7813 Q352.05,374.4063 352.3,374.1719 Q352.5656,373.9375 353.1906,373.9375 L360.8156,373.9375 L360.8156,376.5313 Q360.8156,377.1406 360.5813,377.4063 Q360.3625,377.6563 359.9719,377.6563 Q359.5969,377.6563 359.3625,377.4063 Q359.1281,377.1406 359.1281,376.5313 L359.1281,375.6406 L355.1594,375.6406 L355.1594,378.0938 L356.6438,378.0938 Q356.6438,377.4375 356.7688,377.25 Q357.0344,376.8438 357.5031,376.8438 Q357.8781,376.8438 358.1125,377.1094 Q358.3469,377.3594 358.3469,377.9688 L358.3469,379.9375 Q358.3469,380.4844 358.2219,380.6719 Q357.9563,381.0625 357.5031,381.0625 Q357.0344,381.0625 356.7688,380.6563 Q356.6438,380.4688 356.6438,379.7969 L355.1594,379.7969 Z " fill="#000000"/><text fill="#000000" font-family="sans-serif" font-size="14" lengthAdjust="spacing" textLength="80" x="374.7" y="384.7285">AnimalsPack</text><line style="stroke:#181818;stroke-width:0.5;" x1="322.5" x2="476.5" y1="395" y2="395"/><text fill="#000000" font-family="sans-serif" font-size="14" lengthAdjust="spacing" textLength="90" x="327.5" y="413.5332">Aimals pack id</text><line style="stroke:#181818;stroke-width:1.0;" x1="322.5" x2="476.5" y1="420.6094" y2="420.6094"/><text fill="#000000" font-family="sans-serif" font-size="14" lengthAdjust="spacing" textLength="92" x="327.5" y="439.1426">Leader id (FK)</text><text fill="#000000" font-family="sans-serif" font-size="14" lengthAdjust="spacing" textLength="144" x="327.5" y="456.752">Habitat location id (FK)</text></g><!--MD5=[0be0d06350c1c50a47ba13b681c65684]
link Human to Animal--><g id="link_Human_Animal"><path codeLine="53" d="M374.79,132.88 C369.33,147.44 363.55,162.87 358.09,177.42 " fill="none" id="Human-Animal" style="stroke:#181818;stroke-width:1.0;"/><line style="stroke:#181818;stroke-width:1.0;" x1="360.4218" x2="352.9335" y1="182.6035" y2="179.7882"/><line style="stroke:#181818;stroke-width:1.0;" x1="361.4775" x2="353.9892" y1="179.7954" y2="176.9801"/><line style="stroke:#181818;stroke-width:1.0;" x1="358.0853" x2="355.27" y1="177.4517" y2="184.94"/><line style="stroke:#181818;stroke-width:1.0;" x1="373.839" x2="377.71" y1="135.4164" y2="125.12"/><ellipse cx="373.839" cy="135.4164" fill="none" rx="4" ry="4" style="stroke:#181818;stroke-width:1.0;"/><line style="stroke:#181818;stroke-width:1.0;" x1="372.5582" x2="380.0465" y1="127.4565" y2="130.2718"/></g><!--MD5=[d339a1db777d66789e9b4dd967227e0f]
link Human to Location--><g id="link_Human_Location"><path codeLine="55" d="M438.38,132.83 C480.28,212.59 535.87,350.4 495.5,464 C485.76,491.41 466.63,517.07 448,537.42 " fill="none" id="Human-Location" style="stroke:#181818;stroke-width:1.0;"/><line style="stroke:#181818;stroke-width:1.0;" x1="450.0288" x2="442.51" y1="535.2608" y2="543.29"/><ellipse cx="450.0288" cy="535.2608" fill="none" rx="4" ry="4" style="stroke:#181818;stroke-width:1.0;"/><line style="stroke:#181818;stroke-width:1.0;" x1="448.1638" x2="442.3244" y1="543.1044" y2="537.6362"/><line style="stroke:#181818;stroke-width:1.0;" x1="438.1295" x2="429.0738" y1="132.3516" y2="128.1096"/><line style="stroke:#181818;stroke-width:1.0;" x1="438.1295" x2="439.6662" y1="132.3516" y2="122.4704"/><line style="stroke:#181818;stroke-width:1.0;" x1="438.1295" x2="434.37" y1="132.3516" y2="125.29"/><ellipse cx="440.9491" cy="137.6478" fill="none" rx="4" ry="4" style="stroke:#181818;stroke-width:1.0;"/></g><!--MD5=[ac82225785078f131b8790674ea75fe6]
link Animal to Location--><g id="link_Animal_Location"><path codeLine="57" d="M309.14,311.05 C296.54,355.39 287.06,414.52 304.5,464 C314.01,490.97 332.58,516.33 350.8,536.56 " fill="none" id="Animal-Location" style="stroke:#181818;stroke-width:1.0;"/><line style="stroke:#181818;stroke-width:1.0;" x1="356.669" x2="350.7878" y1="537.0278" y2="542.451"/><line style="stroke:#181818;stroke-width:1.0;" x1="354.6352" x2="348.7541" y1="534.8223" y2="540.2456"/><line style="stroke:#181818;stroke-width:1.0;" x1="351.0167" x2="356.44" y1="536.7988" y2="542.68"/><line style="stroke:#181818;stroke-width:1.0;" x1="309.1819" x2="305.684" y1="310.9047" y2="301.5364"/><line style="stroke:#181818;stroke-width:1.0;" x1="309.1819" x2="317.196" y1="310.9047" y2="304.9236"/><line style="stroke:#181818;stroke-width:1.0;" x1="309.1819" x2="311.44" y1="310.9047" y2="303.23"/><ellipse cx="307.4883" cy="316.6607" fill="none" rx="4" ry="4" style="stroke:#181818;stroke-width:1.0;"/></g><!--MD5=[985b6ccc91103fc9791479b0a224b09b]
link Animal to Species--><g id="link_Animal_Species"><path codeLine="59" d="M245.8,291.86 C208.18,312.7 164.1,338.11 125.5,363 C122.06,365.22 118.56,367.54 115.05,369.93 " fill="none" id="Animal-Species" style="stroke:#181818;stroke-width:1.0;"/><line style="stroke:#181818;stroke-width:1.0;" x1="113.8724" x2="109.3395" y1="375.5995" y2="369.0076"/><line style="stroke:#181818;stroke-width:1.0;" x1="116.3443" x2="111.8115" y1="373.8997" y2="367.3078"/><line style="stroke:#181818;stroke-width:1.0;" x1="114.9019" x2="108.31" y1="370.0372" y2="374.57"/><line style="stroke:#181818;stroke-width:1.0;" x1="246.22" x2="250.3389" y1="291.6148" y2="282.5025"/><line style="stroke:#181818;stroke-width:1.0;" x1="246.22" x2="256.1211" y1="291.6148" y2="293.0175"/><line style="stroke:#181818;stroke-width:1.0;" x1="246.22" x2="253.23" y1="291.6148" y2="287.76"/><ellipse cx="240.9624" cy="294.5059" fill="none" rx="4" ry="4" style="stroke:#181818;stroke-width:1.0;"/></g><!--MD5=[f5a80851c9a4311104f3507ab2e9f740]
link Animal to Plan--><g id="link_Animal_Plan"><path codeLine="61" d="M274.53,309.14 C256.72,328.51 237.55,349.36 221.12,367.23 " fill="none" id="Animal-Plan" style="stroke:#181818;stroke-width:1.0;"/><line style="stroke:#181818;stroke-width:1.0;" x1="221.069" x2="220.0807" y1="367.2757" y2="377.2268"/><line style="stroke:#181818;stroke-width:1.0;" x1="221.069" x2="211.2393" y1="367.2757" y2="369.1132"/><line style="stroke:#181818;stroke-width:1.0;" x1="221.069" x2="215.66" y1="367.2757" y2="373.17"/><ellipse cx="225.1258" cy="362.855" fill="none" rx="4" ry="4" style="stroke:#181818;stroke-width:1.0;"/><line style="stroke:#181818;stroke-width:1.0;" x1="274.661" x2="275.6493" y1="309.0043" y2="299.0532"/><line style="stroke:#181818;stroke-width:1.0;" x1="274.661" x2="284.4907" y1="309.0043" y2="307.1668"/><line style="stroke:#181818;stroke-width:1.0;" x1="274.661" x2="280.07" y1="309.0043" y2="303.11"/><line style="stroke:#181818;stroke-width:1.0;" x1="270.3616" x2="276.2559" y1="307.7733" y2="313.1824"/></g><!--MD5=[af3afd50d26eea8eae3043635999610d]
link Animal to AnimalsPack--><g id="link_Animal_AnimalsPack"><path codeLine="63" d="M347,310.97 C352.36,325.68 358.58,341.16 364.88,355.47 " fill="none" id="Animal-AnimalsPack" style="stroke:#181818;stroke-width:1.0;"/><line style="stroke:#181818;stroke-width:1.0;" x1="363.6715" x2="368.17" y1="352.8019" y2="362.84"/><ellipse cx="363.6715" cy="352.8019" fill="none" rx="4" ry="4" style="stroke:#181818;stroke-width:1.0;"/><line style="stroke:#181818;stroke-width:1.0;" x1="370.1844" x2="362.884" y1="357.554" y2="360.8256"/><line style="stroke:#181818;stroke-width:1.0;" x1="346.8906" x2="338.5422" y1="310.6404" y2="305.1355"/><line style="stroke:#181818;stroke-width:1.0;" x1="346.8906" x2="349.8378" y1="310.6404" y2="301.0845"/><line style="stroke:#181818;stroke-width:1.0;" x1="346.8906" x2="344.19" y1="310.6404" y2="303.11"/><line style="stroke:#181818;stroke-width:1.0;" x1="343.8006" x2="351.331" y1="313.8733" y2="311.1726"/></g><!--MD5=[c3e0334eb493370e150a9cd3621b15e6]
link AnimalsPack to Animal--><g id="link_AnimalsPack_Animal"><path codeLine="65" d="M390.11,356.08 C384.97,341.14 378.68,324.9 372.12,309.57 " fill="none" id="AnimalsPack-Animal" style="stroke:#181818;stroke-width:1.0;"/><line style="stroke:#181818;stroke-width:1.0;" x1="367.2445" x2="374.5823" y1="308.3723" y2="305.1855"/><line style="stroke:#181818;stroke-width:1.0;" x1="368.4395" x2="375.7774" y1="311.124" y2="307.9372"/><line style="stroke:#181818;stroke-width:1.0;" x1="372.5068" x2="369.32" y1="310.4479" y2="303.11"/><line style="stroke:#181818;stroke-width:1.0;" x1="394.9067" x2="387.3238" y1="357.7738" y2="360.3233"/><line style="stroke:#181818;stroke-width:1.0;" x1="393.9507" x2="386.3678" y1="354.9302" y2="357.4797"/><line style="stroke:#181818;stroke-width:1.0;" x1="389.8406" x2="392.39" y1="355.2571" y2="362.84"/></g><!--MD5=[b8e54731d8a5157c9be1aec2586b3c4c]
link AnimalsPack to Location--><g id="link_AnimalsPack_Location"><path codeLine="67" d="M399.5,472.34 C399.5,486.26 399.5,501.25 399.5,515.53 " fill="none" id="AnimalsPack-Location" style="stroke:#181818;stroke-width:1.0;"/><line style="stroke:#181818;stroke-width:1.0;" x1="403.5" x2="395.5" y1="519.84" y2="519.84"/><line style="stroke:#181818;stroke-width:1.0;" x1="403.5" x2="395.5" y1="516.84" y2="516.84"/><line style="stroke:#181818;stroke-width:1.0;" x1="399.5" x2="399.5" y1="515.84" y2="523.84"/><line style="stroke:#181818;stroke-width:1.0;" x1="399.5" x2="393.5" y1="472.3" y2="464.3"/><line style="stroke:#181818;stroke-width:1.0;" x1="399.5" x2="405.5" y1="472.3" y2="464.3"/><line style="stroke:#181818;stroke-width:1.0;" x1="399.5" x2="399.5" y1="472.3" y2="464.3"/><ellipse cx="399.5" cy="478.3" fill="none" rx="4" ry="4" style="stroke:#181818;stroke-width:1.0;"/></g><!--MD5=[7283745905e7ff70ae4c8333a4a6e978]
link Plan to Action--><g id="link_Plan_Action"><path codeLine="69" d="M179.5,472.52 C179.5,489.28 179.5,507.57 179.5,524.31 " fill="none" id="Plan-Action" style="stroke:#181818;stroke-width:1.0;"/><line style="stroke:#181818;stroke-width:1.0;" x1="179.5" x2="185.5" y1="524.39" y2="532.39"/><line style="stroke:#181818;stroke-width:1.0;" x1="179.5" x2="173.5" y1="524.39" y2="532.39"/><line style="stroke:#181818;stroke-width:1.0;" x1="179.5" x2="179.5" y1="524.39" y2="532.39"/><line style="stroke:#181818;stroke-width:1.0;" x1="183.5" x2="175.5" y1="522.39" y2="522.39"/><line style="stroke:#181818;stroke-width:1.0;" x1="179.5" x2="173.5" y1="472.3" y2="464.3"/><line style="stroke:#181818;stroke-width:1.0;" x1="179.5" x2="185.5" y1="472.3" y2="464.3"/><line style="stroke:#181818;stroke-width:1.0;" x1="179.5" x2="179.5" y1="472.3" y2="464.3"/><ellipse cx="179.5" cy="478.3" fill="none" rx="4" ry="4" style="stroke:#181818;stroke-width:1.0;"/></g><!--MD5=[a72ddaa0bea565c65072d9a5712a0ecd]
@startuml Entity Relationship Model

entity Human {
    Human id
    - -
    Name
    Animal instance id (FK)
    Home location id (KF)
}

entity Animal {
    Animal id
    - -
    Biological species (FK)
    Smartness
    Current location id (FK)
}

entity Species {
    Species id
    - -
    Species name
}

entity Action {
    Action id
    - -
    Action name
    Description
}

entity Plan {
    Plan id
    - -
    Start time
    End time
}

entity Location {
    Location id
    - -
    Name
    Description
    Placement
}

entity AnimalsPack {
    Aimals pack id
    - -
    Leader id (FK)
    Habitat location id (FK)
}

Human |o- -|| Animal

Human }o- -o| Location

Animal }o- -|| Location

Animal }o- -|| Species

Animal }|- -o{ Plan

Animal }|- -o| AnimalsPack

AnimalsPack ||- -|| Animal

AnimalsPack }o- -|| Location

Plan }o- -|{ Action

@enduml

PlantUML version 1.2022.7(Mon Aug 22 20:01:30 MSK 2022)
(GPL source distribution)
Java Runtime: OpenJDK Runtime Environment
JVM: OpenJDK 64-Bit Server VM
Default Encoding: Cp1252
Language: en
Country: GB
--></g></svg>